<?xml version="1.0" encoding="UTF-8" standalone="no"?>
<!-- Created with Inkscape (http://www.inkscape.org/) -->

<svg
   xmlns:dc="http://purl.org/dc/elements/1.1/"
   xmlns:cc="http://creativecommons.org/ns#"
   xmlns:rdf="http://www.w3.org/1999/02/22-rdf-syntax-ns#"
   xmlns:svg="http://www.w3.org/2000/svg"
   xmlns="http://www.w3.org/2000/svg"
   version="1.1"
   width="96"
   height="96"
   viewBox="0 0 96 96"
   id="svg3157"
   xml:space="preserve"><metadata
   id="metadata3223"><rdf:RDF><cc:Work
       rdf:about=""><dc:format>image/svg+xml</dc:format><dc:type
         rdf:resource="http://purl.org/dc/dcmitype/StillImage" /><dc:title></dc:title></cc:Work></rdf:RDF></metadata>
<defs
   id="defs3159">
<linearGradient
   x1="47.9995"
   y1="0"
   x2="47.9995"
   y2="144.6673"
   id="HIGHLIGHT_RIM_2_-6"
   gradientUnits="userSpaceOnUse"><stop
     id="stop3181-3"
     style="stop-color:#ffffff;stop-opacity:1"
     offset="0" /><stop
     id="stop3183-6"
     style="stop-color:#000000;stop-opacity:1"
     offset="1" /></linearGradient></defs>


















<linearGradient
   x1="47.9995"
   y1="0"
   x2="47.9995"
   y2="144.6673"
   id="HIGHLIGHT_RIM_2_"
   gradientUnits="userSpaceOnUse">
	<stop
   id="stop3181"
   style="stop-color:#ffffff;stop-opacity:1"
   offset="0" />
	<stop
   id="stop3183"
   style="stop-color:#000000;stop-opacity:1"
   offset="1" />
</linearGradient>

<path
   d="m 48,87.979 c -29.635,0 -40,-10.367 -40,-40 0,-29.634 10.365,-40 40,-40 29.637,0 40,10.365 40,40 0,29.632 -10.363,40 -40,40 z"
   id="SQUIRCLE_1_"
   style="fill:#ffffff;fill-opacity:0.05;display:none" />

















<g
   id="layer1"
   style="display:inline"><rect
     width="96"
     height="96"
     x="0"
     y="0"
     id="BOUNDING_BOX_1_"
     style="fill:none" /><path
     d="m 88.023,49 c 0,29.633 -10.364,40 -40,40 -29.635,0 -40,-10.367 -40,-40 0,-29.634 10.366,-40 40,-40 29.636,0 40,10.365 40,40 z"
     id="SHADOW_1_"
     style="opacity:0.4" /><path
     d="m 48,7.96875 c -29.635,0 -40,10.366 -40,40 0,29.633 10.365,40 40,40 29.637,0 40,-10.368 40,-40 0,-29.635 -10.363,-40 -40,-40 z"
     id="rect3163"
     style="fill:#334266" /><path
     d="m 25.631,53.651 v -2.065 h 0.266 l 0.849,1.21 0.846,-1.21 h 0.268 v 2.065 h -0.321 v -1.486 l -0.792,1.15 -0.792,-1.15 v 1.486 h -0.324 z"
     id="path24_1_"
     style="fill:#ffffff" /><path
     d="m 30.374,53.651 v -2.065 h 1.938 v 0.303 h -1.614 v 0.517 h 1.06 V 52.7 h -1.06 v 0.655 h 1.703 v 0.297 h -2.027 z"
     id="path26_1_"
     style="fill:#ffffff" /><path
     d="m 34.673,51.59 v 2.061 h 0.919 c 0.344,0 0.614,-0.092 0.816,-0.277 0.202,-0.185 0.309,-0.435 0.309,-0.747 0,-0.307 -0.103,-0.558 -0.309,-0.752 -0.208,-0.191 -0.479,-0.284 -0.816,-0.284 h -0.919 z m 0.325,0.293 h 0.594 c 0.234,0 0.425,0.068 0.569,0.206 0.146,0.136 0.224,0.312 0.224,0.531 0,0.225 -0.074,0.406 -0.215,0.538 -0.139,0.133 -0.333,0.197 -0.578,0.197 h -0.594 v -1.472 z"
     id="path28_1_"
     style="fill:#ffffff" /><path
     d="m 39.037,53.651 v -2.07 h 0.328 v 2.07 h -0.328 z"
     id="path30_1_"
     style="fill:#ffffff" /><path
     d="m 42.54,51.59 -1.054,2.061 h 0.34 l 0.27,-0.523 h 1.092 l 0.271,0.523 h 0.34 L 42.745,51.59 H 42.54 z m 0.104,0.474 0.402,0.784 h -0.809 l 0.407,-0.784 z"
     id="path32_1_"
     style="fill:#ffffff" /><path
     d="m 49.752,53.146 c -0.117,0.186 -0.271,0.326 -0.465,0.422 -0.188,0.1 -0.407,0.149 -0.65,0.149 -0.363,0 -0.662,-0.104 -0.896,-0.31 -0.233,-0.206 -0.352,-0.467 -0.352,-0.783 0,-0.314 0.118,-0.578 0.352,-0.785 0.234,-0.207 0.533,-0.309 0.896,-0.309 0.227,0 0.431,0.043 0.614,0.126 0.185,0.084 0.332,0.204 0.444,0.358 l -0.256,0.179 c -0.085,-0.117 -0.196,-0.209 -0.338,-0.271 -0.139,-0.063 -0.292,-0.096 -0.464,-0.096 -0.267,0 -0.484,0.076 -0.657,0.226 -0.173,0.151 -0.26,0.341 -0.26,0.568 0,0.227 0.087,0.417 0.261,0.567 0.174,0.15 0.394,0.227 0.656,0.227 0.185,0 0.344,-0.037 0.488,-0.108 0.138,-0.074 0.262,-0.187 0.367,-0.339 l 0.26,0.179 z"
     id="path34_1_"
     style="fill:#ffffff" /><path
     d="m 52.102,53.651 v -2.065 h 1.938 v 0.303 h -1.614 v 0.517 h 1.061 V 52.7 h -1.061 v 0.655 h 1.705 v 0.297 h -2.029 l 0,-10e-4 z"
     id="path36_1_"
     style="fill:#ffffff" /><path
     d="m 56.4,53.651 v -2.065 h 0.17 l 1.313,1.452 v -1.452 h 0.318 v 2.065 H 58.032 L 56.72,52.204 v 1.447 H 56.4 l 0,0 z"
     id="path38_1_"
     style="fill:#ffffff" /><path
     d="m 64.527,53.651 v -2.065 h 1.936 v 0.303 H 64.85 v 0.517 h 1.059 V 52.7 H 64.85 v 0.655 h 1.703 v 0.297 h -2.026 z"
     id="path42_1_"
     style="fill:#ffffff" /><path
     d="m 68.826,51.59 v 2.061 h 0.324 v -0.904 h 0.903 l 0.579,0.904 h 0.356 L 70.41,52.747 c 0.149,-0.023 0.276,-0.091 0.371,-0.198 0.095,-0.106 0.142,-0.233 0.142,-0.381 0,-0.18 -0.064,-0.327 -0.181,-0.428 -0.119,-0.102 -0.281,-0.149 -0.491,-0.149 h -1.425 z m 0.324,0.302 h 1.102 c 0.109,0 0.195,0.021 0.253,0.072 0.058,0.046 0.089,0.115 0.089,0.203 0,0.092 -0.031,0.158 -0.089,0.206 -0.058,0.049 -0.144,0.071 -0.253,0.071 H 69.15 v -0.552 z"
     id="path44_1_"
     style="fill:#ffffff" /><path
     d="m 71.024,58.243 c 0.65,-0.301 1.299,-0.93 1.917,-1.816 -12.938,0.204 -32.542,0.204 -49.843,0.174 0.049,0.099 0.101,0.199 0.153,0.299 1.193,-0.003 2.372,-0.003 3.529,-0.003 18.085,-0.015 34.512,-0.015 44.244,1.346"
     id="path22_1_"
     style="fill:#d9822b" /><path
     d="m 61.203,53.651 v -1.778 h -0.87 v -0.287 h 2.065 v 0.287 h -0.871 v 1.778 h -0.324 z"
     id="path40_1_"
     style="fill:#ffffff" /><path
     d="m 38.659,37.37 -0.373,2.566 h -2.25 c -1.366,0 -2.63,0.484 -3.794,1.451 -0.305,0.253 -0.58,0.517 -0.824,0.799 -0.136,-0.282 -0.305,-0.545 -0.515,-0.799 -0.794,-0.966 -1.882,-1.451 -3.248,-1.451 h -2.909 c -0.103,0.542 -10e-4,1.004 0.31,1.387 0.31,0.383 0.732,0.578 1.275,0.578 h 0.951 c 0.814,0 1.45,0.292 1.909,0.879 0.459,0.589 0.614,1.294 0.459,2.107 -0.153,0.815 -0.57,1.512 -1.25,2.091 -0.685,0.581 -1.437,0.872 -2.252,0.872 h -0.949 c -0.545,0 -1.042,0.187 -1.498,0.571 -0.456,0.382 -0.737,0.841 -0.839,1.386 h 2.916 c 1.367,0 2.625,-0.477 3.787,-1.435 0.305,-0.252 0.58,-0.519 0.822,-0.8 0.137,0.282 0.313,0.548 0.523,0.8 0.796,0.958 1.874,1.435 3.24,1.435 h 2.916 c 0.104,-0.545 10e-4,-1.004 -0.309,-1.386 -0.308,-0.384 -0.74,-0.571 -1.283,-0.571 h -0.942 c -0.816,0 -1.456,-0.291 -1.918,-0.872 -0.461,-0.58 -0.616,-1.276 -0.459,-2.091 0.155,-0.813 0.575,-1.518 1.26,-2.107 0.684,-0.587 1.435,-0.879 2.25,-0.879 h 0.951 c 0.532,0 1.019,-0.189 1.465,-0.555 l -0.515,3.518 c -0.204,1.389 0.12,2.564 0.982,3.541 0.84,0.987 1.978,1.475 3.351,1.475 1.392,0 2.655,-0.488 3.803,-1.475 1.136,-0.977 1.806,-2.152 2.012,-3.541 0.204,-1.391 -0.122,-2.565 -0.967,-3.541 -0.862,-0.965 -1.99,-1.458 -3.39,-1.458 h -2.964 l 0.063,-0.389 c 0.081,-0.57 -0.048,-1.074 -0.404,-1.489 -0.345,-0.414 -0.817,-0.617 -1.393,-0.617 z m 1.441,4.491 h 2.97 c 0.832,0 1.491,0.284 1.981,0.872 0.476,0.587 0.647,1.306 0.53,2.131 -0.118,0.824 -0.509,1.531 -1.156,2.122 -0.662,0.599 -1.403,0.904 -2.234,0.904 -0.825,0 -1.482,-0.305 -1.973,-0.904 -0.485,-0.591 -0.672,-1.298 -0.555,-2.122 L 40.1,41.861 z"
     id="path46_1_"
     style="fill:#82c223" /><path
     d="m 53.313,39.865 c -1.373,0 -2.645,0.489 -3.771,1.465 -1.148,0.992 -1.822,2.167 -2.028,3.557 l -0.729,4.993 c 0.587,0 1.114,-0.197 1.577,-0.61 0.475,-0.411 0.745,-0.903 0.833,-1.491 l 0.419,-2.892 c 0.122,-0.831 0.522,-1.544 1.18,-2.146 0.663,-0.589 1.402,-0.88 2.228,-0.88 0.83,0 1.49,0.291 1.979,0.88 0.474,0.603 0.654,1.316 0.531,2.146 l -0.419,2.892 c -0.087,0.577 0.062,1.06 0.419,1.474 0.349,0.415 0.809,0.627 1.386,0.627 l 0.73,-4.993 c 0.123,-0.831 0.508,-1.544 1.172,-2.146 0.661,-0.589 1.406,-0.88 2.233,-0.88 0.823,0 1.474,0.291 1.965,0.88 0.474,0.603 0.67,1.316 0.546,2.146 l -0.427,2.892 c -0.088,0.577 0.056,1.06 0.411,1.474 0.354,0.415 0.81,0.627 1.387,0.627 l 0.341,-2.338 c 0.156,0.307 0.354,0.599 0.595,0.872 0.856,0.976 1.974,1.466 3.352,1.466 h 2.953 c 0.08,-0.551 -0.037,-1.023 -0.372,-1.413 -0.328,-0.385 -0.773,-0.578 -1.323,-0.578 h -0.967 c -0.825,0 -1.482,-0.299 -1.973,-0.887 -0.501,-0.588 -0.688,-1.291 -0.571,-2.116 0.127,-0.831 0.516,-1.544 1.188,-2.146 0.663,-0.589 1.41,-0.88 2.235,-0.88 h 0.959 c 0.548,0 1.061,-0.205 1.505,-0.594 0.447,-0.387 0.695,-0.845 0.775,-1.402 h -2.956 c -1.373,0 -2.635,0.489 -3.776,1.465 -0.557,0.488 -0.998,1.021 -1.33,1.601 -0.161,-0.584 -0.45,-1.121 -0.864,-1.601 -0.853,-0.976 -1.967,-1.465 -3.367,-1.465 -0.775,0 -1.533,0.179 -2.297,0.53 -0.753,0.351 -1.424,0.819 -1.988,1.434 -0.4,-0.615 -0.933,-1.1 -1.585,-1.45 -0.647,-0.337 -1.364,-0.513 -2.156,-0.513 z"
     id="path48_1_"
     style="fill:#bdd1e3" /><path
     d="m 48,7.979 c -29.635,0 -40,10.365 -40,40 0,29.633 10.365,40 40,40 29.637,0 40,-10.367 40,-40 0,-29.635 -10.363,-40 -40,-40 z m 0,79.023 C 18.841,87.002 9,77.154 9,47.978 9,18.803 18.841,8.956 48,8.956 c 29.158,0 39,9.847 39,39.022 0,29.176 -9.842,39.024 -39,39.024 z"
     id="HIGHLIGHT_RIM_1_"
     style="fill:url(#HIGHLIGHT_RIM_2_-6);fill-opacity:0.25" /><path
     d="M 9.478,64.25 C 13.244,81.519 24.624,87.979 48,87.979 c 23.378,0 34.756,-6.46 38.522,-23.729 H 9.478 z"
     id="path3187"
     style="opacity:0.02000002" /><path
     d="M 10.242,67.25 C 14.659,82.271 26.031,87.979 48,87.979 c 21.971,0 33.342,-5.708 37.758,-20.729 H 10.242 z"
     id="path3189"
     style="opacity:0.02000002" /><path
     d="M 11.258,70.25 C 16.284,83.041 27.555,87.979 48,87.979 c 20.446,0 31.717,-4.938 36.742,-17.729 H 11.258 z"
     id="path3191"
     style="opacity:0.02000002" /><path
     d="M 12.636,73.25 C 18.211,83.815 29.241,87.979 48,87.979 c 18.76,0 29.79,-4.163 35.365,-14.729 H 12.636 z"
     id="path3193"
     style="opacity:0.02000002" /><path
     d="M 13.797,75.25 C 19.685,84.348 30.47,87.979 48,87.979 c 17.531,0 28.316,-3.631 34.203,-12.729 H 13.797 z"
     id="path3195"
     style="opacity:0.02000002" /><path
     d="m 15.255,77.25 c 6.141,7.628 16.566,10.729 32.745,10.729 16.18,0 26.604,-3.101 32.745,-10.729 h -65.49 z"
     id="path3197"
     style="opacity:0.02000002" /><path
     d="m 17.059,79.25 c 6.305,6.177 16.254,8.729 30.941,8.729 14.688,0 24.638,-2.552 30.942,-8.729 H 17.059 z"
     id="path3199"
     style="fill-opacity:0.02000002" /><path
     d="m 48,8.979 c -29.635,0 -40,10.365 -40,40 0,2.888 0.102,5.588 0.307,8.119 l 0.219,0.02 h 78.958 l 0.21,-0.019 c 0.205,-2.531 0.307,-5.23 0.307,-8.12 C 88,19.344 77.637,8.979 48,8.979 z"
     id="path3201"
     style="opacity:0.01000001;fill:#ffffff" /><path
     d="m 48,7.979 c -29.635,0 -40,10.365 -40,40 0,1.051 0.017,2.073 0.043,3.077 l 0.701,0.062 H 87.26 l 0.697,-0.063 C 87.983,50.051 88,49.029 88,47.978 88,18.344 77.637,7.979 48,7.979 z"
     id="path3203"
     style="opacity:0.01000001;fill:#ffffff" /><path
     d="m 8.965,46.116 h 78.072 l 0.941,-0.084 C 87.521,17.897 76.975,7.979 48,7.979 19.027,7.979 8.479,17.898 8.022,46.033 l 0.943,0.083 z"
     id="path3205"
     style="opacity:0.01000001;fill:#ffffff" /><path
     d="M 9.186,41.116 H 86.814 L 87.775,41.03 C 86.147,16.713 75.187,7.979 48,7.979 20.815,7.979 9.853,16.714 8.225,41.032 l 0.961,0.084 z"
     id="path3207"
     style="opacity:0.01000001;fill:#ffffff" /><path
     d="m 9.186,37.116 h 77.628 c 0.201,0 0.397,-0.036 0.594,-0.066 C 84.854,15.753 73.648,7.979 48,7.979 c -25.646,0 -36.854,7.774 -39.408,29.072 0.197,0.029 0.392,0.065 0.594,0.065 z"
     id="path3209"
     style="opacity:0.01000001;fill:#ffffff" /><path
     d="m 48,7.979 c -24.004,0 -35.363,6.805 -38.814,25.138 H 86.814 C 83.363,14.783 72.006,7.979 48,7.979 z"
     id="path3211"
     style="opacity:0.01000001;fill:#ffffff" /><path
     d="m 84.074,29.67 1.6,-0.376 c 0.083,-0.02 0.158,-0.058 0.239,-0.084 C 81.605,13.805 70.22,7.979 48,7.979 c -22.218,0 -33.604,5.827 -37.913,21.231 0.081,0.026 0.156,0.064 0.239,0.084 l 1.599,0.376 c 0.226,0.053 0.456,0.08 0.688,0.08 h 70.773 c 0.232,0 0.463,-0.027 0.688,-0.08 z"
     id="path3213"
     style="opacity:0.01000001;fill:#ffffff" /><path
     d="m 12.613,26.75 h 70.773 l 1.6,-0.376 C 80.091,13.093 68.794,7.979 48,7.979 c -20.792,0 -32.09,5.115 -36.986,18.395 l 1.599,0.376 z"
     id="path3215"
     style="opacity:0.01000001;fill:#ffffff" /><path
     d="m 12.613,24.75 h 70.773 c 0.305,0 0.595,-0.081 0.86,-0.208 C 78.999,12.621 67.81,7.979 48,7.979 c -19.808,0 -30.998,4.643 -36.247,16.563 0.266,0.127 0.556,0.208 0.86,0.208 z"
     id="path3217"
     style="opacity:0.01000001;fill:#ffffff" /><path
     d="M 83.387,22.75 C 77.82,12.153 66.786,7.979 48,7.979 29.215,7.979 18.181,12.153 12.613,22.75 h 70.774 z"
     id="path3219"
     style="opacity:0.01000001;fill:#ffffff" /></g><g
   id="layer2"
   style="display:inline" /></svg>