<?xml version="1.0"?>
<!-- Converted with SVG Converter - Version 0.9.5 (Compiled Mon May 30 09:08:51 2011) - Copyright (C) 2011 Nokia -->
<svg xmlns="http://www.w3.org/2000/svg" width="96px" x="0px" version="1.1" y="0px" height="96px" viewBox="0 0 96 96" xmlns:xlink="http://www.w3.org/1999/xlink" baseProfile="tiny" xml:space="preserve">
 <rect width="96" fill="none" height="96" id="BOUNDING_BOX_1_"/>
 <path stroke-opacity="0.4" fill-opacity="0.4" id="SHADOW_1_" d="M88.023,49c0,29.633-10.364,40-40,40c-29.635,0-40-10.367-40-40c0-29.634,10.366-40,40-40&#xd;&#xa;&#x9;C77.659,9,88.023,19.365,88.023,49z"/>
 <rect width="87" x="5" y="3.75" fill="#334266" height="87.75"/>
 <path fill="#FFFFFF" id="path24_1_" d="M25.631,53.651v-2.065h0.266l0.849,1.21l0.846-1.21h0.268v2.065h-0.321v-1.486l-0.792,1.15&#xd;&#xa;&#x9;l-0.792-1.15v1.486H25.631z"/>
 <path fill="#FFFFFF" id="path26_1_" d="M30.374,53.651v-2.065h1.938v0.303h-1.614v0.517h1.06v0.294h-1.06v0.655h1.703v0.297H30.374z&#xd;&#xa;&#x9;"/>
 <path fill="#FFFFFF" id="path28_1_" d="M34.673,51.59v2.061h0.919c0.344,0,0.614-0.092,0.816-0.277s0.309-0.435,0.309-0.747&#xd;&#xa;&#x9;c0-0.307-0.103-0.558-0.309-0.752c-0.208-0.191-0.479-0.284-0.816-0.284H34.673z M34.998,51.883h0.594&#xd;&#xa;&#x9;c0.234,0,0.425,0.068,0.569,0.206c0.146,0.136,0.224,0.312,0.224,0.531c0,0.225-0.074,0.406-0.215,0.538&#xd;&#xa;&#x9;c-0.139,0.133-0.333,0.197-0.578,0.197h-0.594V51.883z"/>
 <path fill="#FFFFFF" id="path30_1_" d="M39.037,53.651v-2.07h0.328v2.07H39.037z"/>
 <path fill="#FFFFFF" id="path32_1_" d="M42.54,51.59l-1.054,2.061h0.34l0.27-0.523h1.092l0.271,0.523h0.34l-1.054-2.061H42.54z&#xd;&#xa;&#x9; M42.644,52.064l0.402,0.784h-0.809L42.644,52.064z"/>
 <path fill="#FFFFFF" id="path34_1_" d="M49.752,53.146c-0.117,0.186-0.271,0.326-0.465,0.422c-0.188,0.1-0.407,0.149-0.65,0.149&#xd;&#xa;&#x9;c-0.363,0-0.662-0.104-0.896-0.31c-0.233-0.206-0.352-0.467-0.352-0.783c0-0.314,0.118-0.578,0.352-0.785&#xd;&#xa;&#x9;c0.234-0.207,0.533-0.309,0.896-0.309c0.227,0,0.431,0.043,0.614,0.126c0.185,0.084,0.332,0.204,0.444,0.358l-0.256,0.179&#xd;&#xa;&#x9;c-0.085-0.117-0.196-0.209-0.338-0.271c-0.139-0.063-0.292-0.096-0.464-0.096c-0.267,0-0.484,0.076-0.657,0.226&#xd;&#xa;&#x9;c-0.173,0.151-0.26,0.341-0.26,0.568s0.087,0.417,0.261,0.567c0.174,0.15,0.394,0.227,0.656,0.227c0.185,0,0.344-0.037,0.488-0.108&#xd;&#xa;&#x9;c0.138-0.074,0.262-0.187,0.367-0.339L49.752,53.146z"/>
 <path fill="#FFFFFF" id="path36_1_" d="M52.102,53.651v-2.065h1.938v0.303h-1.614v0.517h1.061v0.294h-1.061v0.655h1.705v0.297&#xd;&#xa;&#x9;H52.102L52.102,53.651z"/>
 <path fill="#FFFFFF" id="path38_1_" d="M56.4,53.651v-2.065h0.17l1.313,1.452v-1.452h0.318v2.065h-0.169l-1.312-1.447v1.447H56.4&#xd;&#xa;&#x9;L56.4,53.651z"/>
 <path fill="#FFFFFF" id="path42_1_" d="M64.527,53.651v-2.065h1.936v0.303H64.85v0.517h1.059v0.294H64.85v0.655h1.703v0.297H64.527z&#xd;&#xa;&#x9;"/>
 <path fill="#FFFFFF" id="path44_1_" d="M68.826,51.59v2.061h0.324v-0.904h0.903l0.579,0.904h0.356l-0.578-0.904&#xd;&#xa;&#x9;c0.149-0.023,0.276-0.091,0.371-0.198c0.095-0.106,0.142-0.233,0.142-0.381c0-0.18-0.064-0.327-0.181-0.428&#xd;&#xa;&#x9;c-0.119-0.102-0.281-0.149-0.491-0.149H68.826z M69.15,51.892h1.102c0.109,0,0.195,0.021,0.253,0.072&#xd;&#xa;&#x9;c0.058,0.046,0.089,0.115,0.089,0.203c0,0.092-0.031,0.158-0.089,0.206c-0.058,0.049-0.144,0.071-0.253,0.071H69.15V51.892z"/>
 <path fill="#D9822B" id="path22_1_" d="M71.024,58.243c0.65-0.301,1.299-0.93,1.917-1.816c-12.938,0.204-32.542,0.204-49.843,0.174&#xd;&#xa;&#x9;c0.049,0.099,0.101,0.199,0.153,0.299c1.193-0.003,2.372-0.003,3.529-0.003C44.865,56.882,61.292,56.882,71.024,58.243"/>
 <path fill="#FFFFFF" id="path40_1_" d="M61.203,53.651v-1.778h-0.87v-0.287h2.065v0.287h-0.871v1.778H61.203z"/>
 <path fill="#82C223" id="path46_1_" d="M38.659,37.37l-0.373,2.566h-2.25c-1.366,0-2.63,0.484-3.794,1.451&#xd;&#xa;&#x9;c-0.305,0.253-0.58,0.517-0.824,0.799c-0.136-0.282-0.305-0.545-0.515-0.799c-0.794-0.966-1.882-1.451-3.248-1.451h-2.909&#xd;&#xa;&#x9;c-0.103,0.542-0.001,1.004,0.31,1.387c0.31,0.383,0.732,0.578,1.275,0.578h0.951c0.814,0,1.45,0.292,1.909,0.879&#xd;&#xa;&#x9;c0.459,0.589,0.614,1.294,0.459,2.107c-0.153,0.815-0.57,1.512-1.25,2.091c-0.685,0.581-1.437,0.872-2.252,0.872h-0.949&#xd;&#xa;&#x9;c-0.545,0-1.042,0.187-1.498,0.571c-0.456,0.382-0.737,0.841-0.839,1.386h2.916c1.367,0,2.625-0.477,3.787-1.435&#xd;&#xa;&#x9;c0.305-0.252,0.58-0.519,0.822-0.8c0.137,0.282,0.313,0.548,0.523,0.8c0.796,0.958,1.874,1.435,3.24,1.435h2.916&#xd;&#xa;&#x9;c0.104-0.545,0.001-1.004-0.309-1.386c-0.308-0.384-0.74-0.571-1.283-0.571h-0.942c-0.816,0-1.456-0.291-1.918-0.872&#xd;&#xa;&#x9;c-0.461-0.58-0.616-1.276-0.459-2.091c0.155-0.813,0.575-1.518,1.26-2.107c0.684-0.587,1.435-0.879,2.25-0.879h0.951&#xd;&#xa;&#x9;c0.532,0,1.019-0.189,1.465-0.555l-0.515,3.518c-0.204,1.389,0.12,2.564,0.982,3.541c0.84,0.987,1.978,1.475,3.351,1.475&#xd;&#xa;&#x9;c1.392,0,2.655-0.488,3.803-1.475c1.136-0.977,1.806-2.152,2.012-3.541c0.204-1.391-0.122-2.565-0.967-3.541&#xd;&#xa;&#x9;c-0.862-0.965-1.99-1.458-3.39-1.458h-2.964l0.063-0.389c0.081-0.57-0.048-1.074-0.404-1.489&#xd;&#xa;&#x9;C39.707,37.573,39.235,37.37,38.659,37.37z M40.1,41.861h2.97c0.832,0,1.491,0.284,1.981,0.872c0.476,0.587,0.647,1.306,0.53,2.131&#xd;&#xa;&#x9;c-0.118,0.824-0.509,1.531-1.156,2.122c-0.662,0.599-1.403,0.904-2.234,0.904c-0.825,0-1.482-0.305-1.973-0.904&#xd;&#xa;&#x9;c-0.485-0.591-0.672-1.298-0.555-2.122L40.1,41.861z"/>
 <path fill="#BDD1E3" id="path48_1_" d="M53.313,39.865c-1.373,0-2.645,0.489-3.771,1.465c-1.148,0.992-1.822,2.167-2.028,3.557&#xd;&#xa;&#x9;l-0.729,4.993c0.587,0,1.114-0.197,1.577-0.61c0.475-0.411,0.745-0.903,0.833-1.491l0.419-2.892c0.122-0.831,0.522-1.544,1.18-2.146&#xd;&#xa;&#x9;c0.663-0.589,1.402-0.88,2.228-0.88c0.83,0,1.49,0.291,1.979,0.88c0.474,0.603,0.654,1.316,0.531,2.146l-0.419,2.892&#xd;&#xa;&#x9;c-0.087,0.577,0.062,1.06,0.419,1.474c0.349,0.415,0.809,0.627,1.386,0.627l0.73-4.993c0.123-0.831,0.508-1.544,1.172-2.146&#xd;&#xa;&#x9;c0.661-0.589,1.406-0.88,2.233-0.88c0.823,0,1.474,0.291,1.965,0.88c0.474,0.603,0.67,1.316,0.546,2.146l-0.427,2.892&#xd;&#xa;&#x9;c-0.088,0.577,0.056,1.06,0.411,1.474c0.354,0.415,0.81,0.627,1.387,0.627l0.341-2.338c0.156,0.307,0.354,0.599,0.595,0.872&#xd;&#xa;&#x9;c0.856,0.976,1.974,1.466,3.352,1.466h2.953c0.08-0.551-0.037-1.023-0.372-1.413c-0.328-0.385-0.773-0.578-1.323-0.578h-0.967&#xd;&#xa;&#x9;c-0.825,0-1.482-0.299-1.973-0.887c-0.501-0.588-0.688-1.291-0.571-2.116c0.127-0.831,0.516-1.544,1.188-2.146&#xd;&#xa;&#x9;c0.663-0.589,1.41-0.88,2.235-0.88h0.959c0.548,0,1.061-0.205,1.505-0.594c0.447-0.387,0.695-0.845,0.775-1.402h-2.956&#xd;&#xa;&#x9;c-1.373,0-2.635,0.489-3.776,1.465c-0.557,0.488-0.998,1.021-1.33,1.601c-0.161-0.584-0.45-1.121-0.864-1.601&#xd;&#xa;&#x9;c-0.853-0.976-1.967-1.465-3.367-1.465c-0.775,0-1.533,0.179-2.297,0.53c-0.753,0.351-1.424,0.819-1.988,1.434&#xd;&#xa;&#x9;c-0.4-0.615-0.933-1.1-1.585-1.45C54.822,40.041,54.105,39.865,53.313,39.865z"/>
 <path fill="#FFFFFF" id="CUT_AWAY_SHAPE_2_" d="M0,0v96h96V0H0z M48,87.979c-29.635,0-40-10.367-40-40c0-29.634,10.365-40,40-40&#xd;&#xa;&#x9;c29.637,0,40,10.365,40,40C88,77.611,77.637,87.979,48,87.979z"/>
 <linearGradient id="HIGHLIGHT_RIM_2_" y1="0" x1="47.9995" y2="144.6673" gradientUnits="userSpaceOnUse" x2="47.9995">
  <stop offset="0" style="stop-color:#FFFFFF"/>
  <stop offset="1" style="stop-color:#000000"/>
 </linearGradient>
 <path fill="url(#HIGHLIGHT_RIM_2_)" fill-opacity="0.25" id="HIGHLIGHT_RIM_1_" d="M48,7.979c-29.635,0-40,10.365-40,40&#xd;&#xa;&#x9;c0,29.633,10.365,40,40,40c29.637,0,40-10.367,40-40C88,18.344,77.637,7.979,48,7.979z M48,87.002c-29.159,0-39-9.848-39-39.024&#xd;&#xa;&#x9;C9,18.803,18.841,8.956,48,8.956c29.158,0,39,9.847,39,39.022C87,77.154,77.158,87.002,48,87.002z"/>
 <path fill="#FFFFFF" display="none" fill-opacity="0.05" id="SQUIRCLE_1_" d="M48,87.979c-29.635,0-40-10.367-40-40&#xd;&#xa;&#x9;c0-29.634,10.365-40,40-40c29.637,0,40,10.365,40,40C88,77.611,77.637,87.979,48,87.979z"/>
 <path stroke-opacity="0.02" fill-opacity="0.02" d="M9.478,64.25C13.244,81.519,24.624,87.979,48,87.979c23.378,0,34.756-6.46,38.522-23.729H9.478z"/>
 <path stroke-opacity="0.02" fill-opacity="0.02" d="M10.242,67.25C14.659,82.271,26.031,87.979,48,87.979c21.971,0,33.342-5.708,37.758-20.729H10.242z"/>
 <path stroke-opacity="0.02" fill-opacity="0.02" d="M11.258,70.25C16.284,83.041,27.555,87.979,48,87.979c20.446,0,31.717-4.938,36.742-17.729H11.258z"/>
 <path stroke-opacity="0.02" fill-opacity="0.02" d="M12.636,73.25C18.211,83.815,29.241,87.979,48,87.979c18.76,0,29.79-4.163,35.365-14.729H12.636z"/>
 <path stroke-opacity="0.02" fill-opacity="0.02" d="M13.797,75.25C19.685,84.348,30.47,87.979,48,87.979c17.531,0,28.316-3.631,34.203-12.729H13.797z"/>
 <path stroke-opacity="0.02" fill-opacity="0.02" d="M15.255,77.25C21.396,84.878,31.821,87.979,48,87.979c16.18,0,26.604-3.101,32.745-10.729H15.255z"/>
 <path fill-opacity="0.02" d="M17.059,79.25c6.305,6.177,16.254,8.729,30.941,8.729c14.688,0,24.638-2.552,30.942-8.729H17.059z"/>
 <path stroke-opacity="0.01" fill="#FFFFFF" fill-opacity="0.01" d="M48,8.979c-29.635,0-40,10.365-40,40c0,2.888,0.102,5.588,0.307,8.119l0.219,0.02h78.958&#xd;&#xa;&#x9;l0.21-0.019c0.205-2.531,0.307-5.23,0.307-8.12C88,19.344,77.637,8.979,48,8.979z"/>
 <path stroke-opacity="0.01" fill="#FFFFFF" fill-opacity="0.01" d="M48,7.979c-29.635,0-40,10.365-40,40c0,1.051,0.017,2.073,0.043,3.077l0.701,0.062H87.26&#xd;&#xa;&#x9;l0.697-0.063C87.983,50.051,88,49.029,88,47.978C88,18.344,77.637,7.979,48,7.979z"/>
 <path stroke-opacity="0.01" fill="#FFFFFF" fill-opacity="0.01" d="M8.965,46.116h78.072l0.941-0.084C87.521,17.897,76.975,7.979,48,7.979&#xd;&#xa;&#x9;c-28.973,0-39.521,9.919-39.978,38.054L8.965,46.116z"/>
 <path stroke-opacity="0.01" fill="#FFFFFF" fill-opacity="0.01" d="M9.186,41.116h77.628l0.961-0.086C86.147,16.713,75.187,7.979,48,7.979&#xd;&#xa;&#x9;c-27.185,0-38.147,8.735-39.775,33.053L9.186,41.116z"/>
 <path stroke-opacity="0.01" fill="#FFFFFF" fill-opacity="0.01" d="M9.186,37.116h77.628c0.201,0,0.397-0.036,0.594-0.066C84.854,15.753,73.648,7.979,48,7.979&#xd;&#xa;&#x9;c-25.646,0-36.854,7.774-39.408,29.072C8.789,37.08,8.984,37.116,9.186,37.116z"/>
 <path stroke-opacity="0.01" fill="#FFFFFF" fill-opacity="0.01" d="M48,7.979c-24.004,0-35.363,6.805-38.814,25.138h77.628C83.363,14.783,72.006,7.979,48,7.979&#xd;&#xa;&#x9;z"/>
 <path stroke-opacity="0.01" fill="#FFFFFF" fill-opacity="0.01" d="M84.074,29.67l1.6-0.376c0.083-0.02,0.158-0.058,0.239-0.084&#xd;&#xa;&#x9;C81.605,13.805,70.22,7.979,48,7.979c-22.218,0-33.604,5.827-37.913,21.231c0.081,0.026,0.156,0.064,0.239,0.084l1.599,0.376&#xd;&#xa;&#x9;c0.226,0.053,0.456,0.08,0.688,0.08h70.773C83.618,29.75,83.849,29.723,84.074,29.67z"/>
 <path stroke-opacity="0.01" fill="#FFFFFF" fill-opacity="0.01" d="M12.613,26.75h70.773l1.6-0.376C80.091,13.093,68.794,7.979,48,7.979&#xd;&#xa;&#x9;c-20.792,0-32.09,5.115-36.986,18.395L12.613,26.75z"/>
 <path stroke-opacity="0.01" fill="#FFFFFF" fill-opacity="0.01" d="M12.613,24.75h70.773c0.305,0,0.595-0.081,0.86-0.208C78.999,12.621,67.81,7.979,48,7.979&#xd;&#xa;&#x9;c-19.808,0-30.998,4.643-36.247,16.563C12.019,24.669,12.309,24.75,12.613,24.75z"/>
 <path stroke-opacity="0.01" fill="#FFFFFF" fill-opacity="0.01" d="M83.387,22.75C77.82,12.153,66.786,7.979,48,7.979c-18.785,0-29.819,4.174-35.387,14.771&#xd;&#xa;&#x9;H83.387z"/>
</svg>
