<?xml version="1.0" encoding="UTF-8" standalone="no"?>
<!-- Generator: Adobe Illustrator 15.0.0, SVG Export Plug-In . SVG Version: 6.00 Build 0)  -->

<svg
   xmlns:dc="http://purl.org/dc/elements/1.1/"
   xmlns:cc="http://creativecommons.org/ns#"
   xmlns:rdf="http://www.w3.org/1999/02/22-rdf-syntax-ns#"
   xmlns:svg="http://www.w3.org/2000/svg"
   xmlns="http://www.w3.org/2000/svg"
   xmlns:sodipodi="http://sodipodi.sourceforge.net/DTD/sodipodi-0.dtd"
   xmlns:inkscape="http://www.inkscape.org/namespaces/inkscape"
   version="1.1"
   x="0px"
   y="0px"
   width="30px"
   height="30px"
   viewBox="0 0 30 30"
   enable-background="new 0 0 30 30"
   xml:space="preserve"
   id="svg3812"
   inkscape:version="0.48.0 r9654"
   sodipodi:docname="tv.svg"
   inkscape:export-filename="C:\cbro\src\semperXbmc\qml\semperXbmc\img\tv.png"
   inkscape:export-xdpi="185.81"
   inkscape:export-ydpi="185.81"><metadata
   id="metadata3829"><rdf:RDF><cc:Work
       rdf:about=""><dc:format>image/svg+xml</dc:format><dc:type
         rdf:resource="http://purl.org/dc/dcmitype/StillImage" /><dc:title></dc:title></cc:Work></rdf:RDF></metadata><defs
   id="defs3827" /><sodipodi:namedview
   pagecolor="#ffffff"
   bordercolor="#666666"
   borderopacity="1"
   objecttolerance="10"
   gridtolerance="10"
   guidetolerance="10"
   inkscape:pageopacity="0"
   inkscape:pageshadow="2"
   inkscape:window-width="1280"
   inkscape:window-height="998"
   id="namedview3825"
   showgrid="false"
   inkscape:zoom="8.7666667"
   inkscape:cx="-2.6235741"
   inkscape:cy="15"
   inkscape:window-x="-4"
   inkscape:window-y="-4"
   inkscape:window-maximized="1"
   inkscape:current-layer="svg3812" />
<rect
   style="fill:#7748ff;fill-opacity:0.94117647;stroke:#e0e0e0;stroke-opacity:1"
   id="rect3831"
   width="30"
   height="30"
   x="0"
   y="2.9201901e-015"
   inkscape:export-xdpi="192"
   inkscape:export-ydpi="192"
   ry="5" /><g
   id="DO_NOT_EDIT_-_BOUNDING_BOX">
	<rect
   id="BOUNDING_BOX"
   fill="none"
   width="30"
   height="30" />
</g>
<g
   id="PLACE_YOUR_GRAPHIC_HERE"
   transform="matrix(0.93333333,0,0,0.82477628,1.0000001,2.7310404)">
	<path
   d="M 28.125,2.751 H 1.875 C 1.393,2.751 1,3.143 1,3.626 V 21.125 C 1,21.609 1.393,22 1.875,22 h 26.25 C 28.607,22 29,21.609 29,21.125 V 3.626 C 29,3.143 28.607,2.751 28.125,2.751 z m -1.75,16.624 H 3.625 V 4.501 h 22.75 V 19.375 z M 9,25 H 21 V 23 H 9 v 2 z"
   id="path3817"
   inkscape:connector-curvature="0"
   style="opacity:0.3" />
	<path
   d="M 9,27 C 8.448,27 8,26.553 8,26 V 24 H 1.875 C 0.841,24 0,23.159 0,22.125 V 4.626 C 0,3.592 0.841,2.751 1.875,2.751 h 26.25 C 29.159,2.751 30,3.592 30,4.626 V 22.125 C 30,23.159 29.159,24 28.125,24 H 22 v 2 c 0,0.553 -0.447,1 -1,1 H 9 z"
   id="path3819"
   inkscape:connector-curvature="0"
   style="opacity:0.15" />
	<path
   d="M 28.125,3.751 H 1.875 C 1.393,3.751 1,4.143 1,4.626 V 22.125 C 1,22.609 1.393,23 1.875,23 h 26.25 C 28.607,23 29,22.609 29,22.125 V 4.626 C 29,4.143 28.607,3.751 28.125,3.751 z m -1.75,16.624 H 3.625 V 5.501 h 22.75 V 20.375 z M 9,26 H 21 V 24 H 9 v 2 z"
   id="path3821"
   inkscape:connector-curvature="0"
   style="opacity:0.15" />
	<path
   d="M 28.125,3.751 H 1.875 C 1.393,3.751 1,4.143 1,4.626 V 22.125 C 1,22.609 1.393,23 1.875,23 h 26.25 C 28.607,23 29,22.609 29,22.125 V 4.626 C 29,4.143 28.607,3.751 28.125,3.751 z m -1.75,16.624 H 3.625 V 5.501 h 22.75 V 20.375 z M 9,26 H 21 V 24 H 9 v 2 z"
   id="path3823"
   inkscape:connector-curvature="0"
   style="fill:#ffffff" />
</g>
</svg>