<?xml version="1.0" encoding="UTF-8" standalone="no"?>
<!-- Created with Inkscape (http://www.inkscape.org/) -->
<svg xmlns:dc="http://purl.org/dc/elements/1.1/" xmlns:cc="http://web.resource.org/cc/" xmlns:rdf="http://www.w3.org/1999/02/22-rdf-syntax-ns#" xmlns:svg="http://www.w3.org/2000/svg" xmlns="http://www.w3.org/2000/svg" xmlns:xlink="http://www.w3.org/1999/xlink" xmlns:sodipodi="http://sodipodi.sourceforge.net/DTD/sodipodi-0.dtd" xmlns:inkscape="http://www.inkscape.org/namespaces/inkscape" width="327.05698" height="323.64401" id="svg2" sodipodi:version="0.32" inkscape:version="0.45.1" sodipodi:docbase="D:\Inkscape Grafiken\OCAL" sodipodi:docname=" CD_DVD.svg" inkscape:output_extension="org.inkscape.output.svg.inkscape" version="1.0">
  <defs id="defs4">
    <linearGradient inkscape:collect="always" id="linearGradient2690">
      <stop style="stop-color:#008000;stop-opacity:1;" offset="0" id="stop2692"/>
      <stop style="stop-color:#008000;stop-opacity:0;" offset="1" id="stop2694"/>
    </linearGradient>
    <linearGradient inkscape:collect="always" id="linearGradient2618">
      <stop style="stop-color:#55ff99;stop-opacity:1;" offset="0" id="stop2620"/>
      <stop style="stop-color:#55ff99;stop-opacity:0;" offset="1" id="stop2622"/>
    </linearGradient>
    <linearGradient inkscape:collect="always" id="linearGradient2610">
      <stop style="stop-color:#55ff99;stop-opacity:1;" offset="0" id="stop2612"/>
      <stop style="stop-color:#55ff99;stop-opacity:0;" offset="1" id="stop2614"/>
    </linearGradient>
    <linearGradient inkscape:collect="always" id="linearGradient2602">
      <stop style="stop-color:#55ff99;stop-opacity:1;" offset="0" id="stop2604"/>
      <stop style="stop-color:#55ff99;stop-opacity:0;" offset="1" id="stop2606"/>
    </linearGradient>
    <linearGradient inkscape:collect="always" id="linearGradient2594">
      <stop style="stop-color:#55ff99;stop-opacity:1;" offset="0" id="stop2596"/>
      <stop style="stop-color:#55ff99;stop-opacity:0;" offset="1" id="stop2598"/>
    </linearGradient>
    <linearGradient inkscape:collect="always" id="linearGradient2586">
      <stop style="stop-color:#55ff99;stop-opacity:1;" offset="0" id="stop2588"/>
      <stop style="stop-color:#55ff99;stop-opacity:0;" offset="1" id="stop2590"/>
    </linearGradient>
    <linearGradient inkscape:collect="always" id="linearGradient2578">
      <stop style="stop-color:#55ff99;stop-opacity:1;" offset="0" id="stop2580"/>
      <stop style="stop-color:#55ff99;stop-opacity:0;" offset="1" id="stop2582"/>
    </linearGradient>
    <linearGradient inkscape:collect="always" id="linearGradient2570">
      <stop style="stop-color:#55ff99;stop-opacity:1;" offset="0" id="stop2572"/>
      <stop style="stop-color:#55ff99;stop-opacity:0;" offset="1" id="stop2574"/>
    </linearGradient>
    <linearGradient inkscape:collect="always" id="linearGradient2562">
      <stop style="stop-color:#55ff99;stop-opacity:1;" offset="0" id="stop2564"/>
      <stop style="stop-color:#55ff99;stop-opacity:0;" offset="1" id="stop2566"/>
    </linearGradient>
    <linearGradient inkscape:collect="always" id="linearGradient2554">
      <stop style="stop-color:#55ff99;stop-opacity:1;" offset="0" id="stop2556"/>
      <stop style="stop-color:#55ff99;stop-opacity:0;" offset="1" id="stop2558"/>
    </linearGradient>
    <linearGradient inkscape:collect="always" id="linearGradient2546">
      <stop style="stop-color:#55ff99;stop-opacity:1;" offset="0" id="stop2548"/>
      <stop style="stop-color:#55ff99;stop-opacity:0;" offset="1" id="stop2550"/>
    </linearGradient>
    <linearGradient inkscape:collect="always" id="linearGradient14411">
      <stop style="stop-color:#ffffff;stop-opacity:1;" offset="0" id="stop14413"/>
      <stop style="stop-color:#ffffff;stop-opacity:0;" offset="1" id="stop14415"/>
    </linearGradient>
    <filter inkscape:collect="always" x="-0.05759215" width="1.1151843" y="-0.16771904" height="1.3354381" id="filter5370">
      <feGaussianBlur inkscape:collect="always" stdDeviation="1.1664792" id="feGaussianBlur5372"/>
    </filter>
    <filter inkscape:collect="always" x="-0.072621271" width="1.1452425" y="-0.11868787" height="1.2373757" id="filter5374">
      <feGaussianBlur inkscape:collect="always" stdDeviation="1.1664792" id="feGaussianBlur5376"/>
    </filter>
    <filter inkscape:collect="always" id="filter5378">
      <feGaussianBlur inkscape:collect="always" stdDeviation="1.1664792" id="feGaussianBlur5380"/>
    </filter>
    <filter inkscape:collect="always" id="filter5382">
      <feGaussianBlur inkscape:collect="always" stdDeviation="1.1664792" id="feGaussianBlur5384"/>
    </filter>
    <filter inkscape:collect="always" id="filter5386">
      <feGaussianBlur inkscape:collect="always" stdDeviation="1.1664792" id="feGaussianBlur5388"/>
    </filter>
    <filter inkscape:collect="always" id="filter5390">
      <feGaussianBlur inkscape:collect="always" stdDeviation="1.1664792" id="feGaussianBlur5392"/>
    </filter>
    <filter inkscape:collect="always" id="filter5394">
      <feGaussianBlur inkscape:collect="always" stdDeviation="1.1664792" id="feGaussianBlur5396"/>
    </filter>
    <filter inkscape:collect="always" id="filter5398">
      <feGaussianBlur inkscape:collect="always" stdDeviation="1.1664792" id="feGaussianBlur5400"/>
    </filter>
    <filter inkscape:collect="always" id="filter5402">
      <feGaussianBlur inkscape:collect="always" stdDeviation="1.1664792" id="feGaussianBlur5404"/>
    </filter>
    <filter inkscape:collect="always" id="filter5406">
      <feGaussianBlur inkscape:collect="always" stdDeviation="1.1664792" id="feGaussianBlur5408"/>
    </filter>
    <filter inkscape:collect="always" id="filter6387">
      <feGaussianBlur inkscape:collect="always" stdDeviation="0.37713652" id="feGaussianBlur6389"/>
    </filter>
    <filter inkscape:collect="always" x="-0.020372109" width="1.0407442" y="-0.11506076" height="1.2301215" id="filter9411">
      <feGaussianBlur inkscape:collect="always" stdDeviation="0.88146883" id="feGaussianBlur9413"/>
    </filter>
    <filter inkscape:collect="always" x="-0.14019874" width="1.2803975" y="-0.03942088" height="1.0788418" id="filter12434">
      <feGaussianBlur inkscape:collect="always" stdDeviation="3.472428" id="feGaussianBlur12436"/>
    </filter>
    <linearGradient inkscape:collect="always" xlink:href="#linearGradient2554" id="linearGradient9335" gradientUnits="userSpaceOnUse" x1="372.10727" y1="151.39676" x2="397.59244" y2="157.54836"/>
    <linearGradient inkscape:collect="always" xlink:href="#linearGradient2546" id="linearGradient9337" gradientUnits="userSpaceOnUse" x1="366.39508" y1="157.54836" x2="383.09225" y2="170.125"/>
    <linearGradient inkscape:collect="always" xlink:href="#linearGradient2562" id="linearGradient9339" gradientUnits="userSpaceOnUse" x1="358.48587" y1="160.62415" x2="371.66788" y2="175.90625"/>
    <linearGradient inkscape:collect="always" xlink:href="#linearGradient2570" id="linearGradient9341" gradientUnits="userSpaceOnUse" x1="344.42511" y1="162.82114" x2="364.19809" y2="182.65625"/>
    <linearGradient inkscape:collect="always" xlink:href="#linearGradient2578" id="linearGradient9343" gradientUnits="userSpaceOnUse" x1="336.07651" y1="170.73033" x2="353.2131" y2="187.25923"/>
    <linearGradient inkscape:collect="always" xlink:href="#linearGradient2586" id="linearGradient9345" gradientUnits="userSpaceOnUse" x1="327.72794" y1="172.92732" x2="342.66751" y2="190.9427"/>
    <linearGradient inkscape:collect="always" xlink:href="#linearGradient2594" id="linearGradient9347" gradientUnits="userSpaceOnUse" x1="317.18234" y1="173.80612" x2="334.75833" y2="193.57909"/>
    <linearGradient inkscape:collect="always" xlink:href="#linearGradient2602" id="linearGradient9349" gradientUnits="userSpaceOnUse" x1="313.66714" y1="183.03351" x2="325.53094" y2="200.36882"/>
    <linearGradient inkscape:collect="always" xlink:href="#linearGradient2610" id="linearGradient9351" gradientUnits="userSpaceOnUse" x1="310.15195" y1="187.8669" x2="322.125" y2="201.90625"/>
    <linearGradient inkscape:collect="always" xlink:href="#linearGradient2618" id="linearGradient9353" gradientUnits="userSpaceOnUse" x1="303.56097" y1="191.8215" x2="312.57849" y2="203.24588"/>
    <linearGradient inkscape:collect="always" xlink:href="#linearGradient2690" id="linearGradient9355" gradientUnits="userSpaceOnUse" x1="479.95184" y1="162.77159" x2="468.68195" y2="139.26588"/>
    <linearGradient inkscape:collect="always" xlink:href="#linearGradient14411" id="linearGradient9357" gradientUnits="userSpaceOnUse" x1="240.38437" y1="115.89909" x2="241.53912" y2="121.17792"/>
    <filter id="filter11193" height="1.204561" y="-0.10228051" width="1.6059247" x="-0.30296236" inkscape:collect="always">
      <feGaussianBlur id="feGaussianBlur11195" stdDeviation="18.143585" inkscape:collect="always"/>
    </filter>
    <filter id="filter11189" height="1.2111586" y="-0.10557931" width="1.3552474" x="-0.17762369" inkscape:collect="always">
      <feGaussianBlur id="feGaussianBlur11191" stdDeviation="18.143585" inkscape:collect="always"/>
    </filter>
    <filter id="filter11185" height="1.2424628" y="-0.12123133" width="1.2640786" x="-0.13203932" inkscape:collect="always">
      <feGaussianBlur id="feGaussianBlur11187" stdDeviation="18.143585" inkscape:collect="always"/>
    </filter>
    <filter id="filter11181" height="1.3091427" y="-0.15457135" width="1.2171913" x="-0.10859563" inkscape:collect="always">
      <feGaussianBlur id="feGaussianBlur11183" stdDeviation="18.143585" inkscape:collect="always"/>
    </filter>
    <clipPath id="clipPath4248" clipPathUnits="userSpaceOnUse">
      <path style="opacity:0.79007634;color:#000000;fill:#666666;fill-opacity:1;fill-rule:nonzero;stroke:none;stroke-width:7.19999981;stroke-linecap:butt;stroke-linejoin:round;marker:none;marker-start:none;marker-mid:none;marker-end:none;stroke-miterlimit:4;stroke-dasharray:none;stroke-dashoffset:0;stroke-opacity:1;visibility:visible;display:inline;overflow:visible;enable-background:accumulate" d="M 372.84375,260.9375 C 255.3466,260.9375 160,356.2841 160,473.78125 C 160,591.2784 255.3466,686.65625 372.84375,686.65625 C 490.3409,686.65625 585.71875,591.2784 585.71875,473.78125 C 585.71875,356.2841 490.3409,260.9375 372.84375,260.9375 z M 372.84375,420.9375 C 402.02089,420.9375 425.71875,444.60411 425.71875,473.78125 C 425.71875,502.95839 402.02089,526.65625 372.84375,526.65625 C 343.66661,526.65625 320,502.95839 320,473.78125 C 320,444.60411 343.66661,420.9375 372.84375,420.9375 z " id="path4250"/>
    </clipPath>
    <clipPath id="clipPath4244" clipPathUnits="userSpaceOnUse">
      <path style="opacity:0.79007634;color:#000000;fill:#666666;fill-opacity:1;fill-rule:nonzero;stroke:none;stroke-width:7.19999981;stroke-linecap:butt;stroke-linejoin:round;marker:none;marker-start:none;marker-mid:none;marker-end:none;stroke-miterlimit:4;stroke-dasharray:none;stroke-dashoffset:0;stroke-opacity:1;visibility:visible;display:inline;overflow:visible;enable-background:accumulate" d="M 372.84375,260.9375 C 255.3466,260.9375 160,356.2841 160,473.78125 C 160,591.2784 255.3466,686.65625 372.84375,686.65625 C 490.3409,686.65625 585.71875,591.2784 585.71875,473.78125 C 585.71875,356.2841 490.3409,260.9375 372.84375,260.9375 z M 372.84375,420.9375 C 402.02089,420.9375 425.71875,444.60411 425.71875,473.78125 C 425.71875,502.95839 402.02089,526.65625 372.84375,526.65625 C 343.66661,526.65625 320,502.95839 320,473.78125 C 320,444.60411 343.66661,420.9375 372.84375,420.9375 z " id="path4246"/>
    </clipPath>
    <clipPath id="clipPath4240" clipPathUnits="userSpaceOnUse">
      <path style="opacity:0.79007634;color:#000000;fill:#666666;fill-opacity:1;fill-rule:nonzero;stroke:none;stroke-width:7.19999981;stroke-linecap:butt;stroke-linejoin:round;marker:none;marker-start:none;marker-mid:none;marker-end:none;stroke-miterlimit:4;stroke-dasharray:none;stroke-dashoffset:0;stroke-opacity:1;visibility:visible;display:inline;overflow:visible;enable-background:accumulate" d="M 372.84375,260.9375 C 255.3466,260.9375 160,356.2841 160,473.78125 C 160,591.2784 255.3466,686.65625 372.84375,686.65625 C 490.3409,686.65625 585.71875,591.2784 585.71875,473.78125 C 585.71875,356.2841 490.3409,260.9375 372.84375,260.9375 z M 372.84375,420.9375 C 402.02089,420.9375 425.71875,444.60411 425.71875,473.78125 C 425.71875,502.95839 402.02089,526.65625 372.84375,526.65625 C 343.66661,526.65625 320,502.95839 320,473.78125 C 320,444.60411 343.66661,420.9375 372.84375,420.9375 z " id="path4242"/>
    </clipPath>
    <clipPath id="clipPath4236" clipPathUnits="userSpaceOnUse">
      <path style="opacity:0.79007634;color:#000000;fill:#666666;fill-opacity:1;fill-rule:nonzero;stroke:none;stroke-width:7.19999981;stroke-linecap:butt;stroke-linejoin:round;marker:none;marker-start:none;marker-mid:none;marker-end:none;stroke-miterlimit:4;stroke-dasharray:none;stroke-dashoffset:0;stroke-opacity:1;visibility:visible;display:inline;overflow:visible;enable-background:accumulate" d="M 372.84375,260.9375 C 255.3466,260.9375 160,356.2841 160,473.78125 C 160,591.2784 255.3466,686.65625 372.84375,686.65625 C 490.3409,686.65625 585.71875,591.2784 585.71875,473.78125 C 585.71875,356.2841 490.3409,260.9375 372.84375,260.9375 z M 372.84375,420.9375 C 402.02089,420.9375 425.71875,444.60411 425.71875,473.78125 C 425.71875,502.95839 402.02089,526.65625 372.84375,526.65625 C 343.66661,526.65625 320,502.95839 320,473.78125 C 320,444.60411 343.66661,420.9375 372.84375,420.9375 z " id="path4238"/>
    </clipPath>
    <clipPath id="clipPath4232" clipPathUnits="userSpaceOnUse">
      <path style="opacity:0.79007634;color:#000000;fill:#666666;fill-opacity:1;fill-rule:nonzero;stroke:none;stroke-width:7.19999981;stroke-linecap:butt;stroke-linejoin:round;marker:none;marker-start:none;marker-mid:none;marker-end:none;stroke-miterlimit:4;stroke-dasharray:none;stroke-dashoffset:0;stroke-opacity:1;visibility:visible;display:inline;overflow:visible;enable-background:accumulate" d="M 372.84375,260.9375 C 255.3466,260.9375 160,356.2841 160,473.78125 C 160,591.2784 255.3466,686.65625 372.84375,686.65625 C 490.3409,686.65625 585.71875,591.2784 585.71875,473.78125 C 585.71875,356.2841 490.3409,260.9375 372.84375,260.9375 z M 372.84375,420.9375 C 402.02089,420.9375 425.71875,444.60411 425.71875,473.78125 C 425.71875,502.95839 402.02089,526.65625 372.84375,526.65625 C 343.66661,526.65625 320,502.95839 320,473.78125 C 320,444.60411 343.66661,420.9375 372.84375,420.9375 z " id="path4234"/>
    </clipPath>
    <linearGradient id="linearGradient5241">
      <stop id="stop5243" offset="0" style="stop-color:#7c7c7c;stop-opacity:1;"/>
      <stop id="stop5245" offset="1" style="stop-color:#c6c6c6;stop-opacity:1;"/>
    </linearGradient>
    <linearGradient id="linearGradient7185">
      <stop id="stop7187" offset="0" style="stop-color:#6f6f6f;stop-opacity:1;"/>
      <stop id="stop7189" offset="1" style="stop-color:#f5f5f5;stop-opacity:1;"/>
    </linearGradient>
    <linearGradient inkscape:collect="always" xlink:href="#linearGradient2578" id="linearGradient3204" gradientUnits="userSpaceOnUse" x1="336.07651" y1="170.73033" x2="353.2131" y2="187.25923" gradientTransform="matrix(0.49145, 0, 0, 0.49145, 752.086, 49.9465)"/>
    <linearGradient inkscape:collect="always" xlink:href="#linearGradient5241" id="linearGradient3280" gradientUnits="userSpaceOnUse" gradientTransform="translate(235.865, -28.3634)" spreadMethod="reflect" x1="-73.263298" y1="514.97156" x2="-3.5968626" y2="521.37653"/>
    <linearGradient inkscape:collect="always" xlink:href="#linearGradient5241" id="linearGradient3282" gradientUnits="userSpaceOnUse" gradientTransform="translate(241.355, -29.2784)" spreadMethod="reflect" x1="-73.263298" y1="514.97156" x2="-3.5968626" y2="521.37653"/>
    <linearGradient inkscape:collect="always" xlink:href="#linearGradient7185" id="linearGradient3284" gradientUnits="userSpaceOnUse" spreadMethod="reflect" x1="390.19592" y1="473.79688" x2="213.73976" y2="368.65701"/>
  </defs>
  <sodipodi:namedview id="base" pagecolor="#ffffff" bordercolor="#666666" borderopacity="1.0" inkscape:pageopacity="0.0" inkscape:pageshadow="2" inkscape:zoom="0.15591246" inkscape:cx="457.35575" inkscape:cy="737.47229" inkscape:document-units="px" inkscape:current-layer="layer1" showguides="true" inkscape:guide-bbox="true" inkscape:window-width="1280" inkscape:window-height="750" inkscape:window-x="0" inkscape:window-y="22"/>
  <metadata id="metadata7">
    <rdf:RDF>
      <cc:Work rdf:about="">
        <dc:format>image/svg+xml</dc:format>
        <dc:type rdf:resource="http://purl.org/dc/dcmitype/StillImage"/>
      </cc:Work>
    </rdf:RDF>
  </metadata>
  <g inkscape:label="Ebene 1" inkscape:groupmode="layer" id="layer1" transform="translate(-89.645, -116.553)">
    <g id="g2267" transform="matrix(0.746009, 0, 0, 0.746009, -31.6575, -84.2975)">
      <path style="color:#000000;fill:none;fill-opacity:1;fill-rule:nonzero;stroke:url(#linearGradient3280);stroke-width:7.19999981;stroke-linecap:butt;stroke-linejoin:round;marker:none;marker-start:none;marker-mid:none;marker-end:none;stroke-miterlimit:4;stroke-dasharray:none;stroke-dashoffset:0;stroke-opacity:1;visibility:visible;display:inline;overflow:visible;enable-background:accumulate" d="M 379.04561,273.74883 C 261.54846,273.74883 166.20186,369.09543 166.20186,486.59258 C 166.20186,604.08973 261.54846,699.46758 379.04561,699.46758 C 496.54276,699.46758 591.92061,604.08973 591.92061,486.59258 C 591.92061,369.09543 496.54276,273.74883 379.04561,273.74883 z M 379.04561,433.74883 C 408.22275,433.74883 431.92061,457.41544 431.92061,486.59258 C 431.92061,515.76972 408.22275,539.46758 379.04561,539.46758 C 349.86847,539.46758 326.20186,515.76972 326.20186,486.59258 C 326.20186,457.41544 349.86847,433.74883 379.04561,433.74883 z " id="path4252" clip-path="none"/>
      <path id="path4254" d="M 384.53557,272.83384 C 267.03842,272.83384 171.69182,368.18044 171.69182,485.67759 C 171.69182,603.17474 267.03842,698.55259 384.53557,698.55259 C 502.03272,698.55259 597.41057,603.17474 597.41057,485.67759 C 597.41057,368.18044 502.03272,272.83384 384.53557,272.83384 z M 384.53557,432.83384 C 413.71271,432.83384 437.41057,456.50045 437.41057,485.67759 C 437.41057,514.85473 413.71271,538.55259 384.53557,538.55259 C 355.35843,538.55259 331.69182,514.85473 331.69182,485.67759 C 331.69182,456.50045 355.35843,432.83384 384.53557,432.83384 z " style="color:#000000;fill:none;fill-opacity:1;fill-rule:nonzero;stroke:url(#linearGradient3282);stroke-width:7.19999981;stroke-linecap:butt;stroke-linejoin:round;marker:none;marker-start:none;marker-mid:none;marker-end:none;stroke-miterlimit:4;stroke-dasharray:none;stroke-dashoffset:0;stroke-opacity:1;visibility:visible;display:inline;overflow:visible;enable-background:accumulate"/>
      <path transform="translate(8.94684, 11.8963)" clip-path="url(#clipPath4248)" id="path2160" d="M 372.84375,260.9375 C 255.3466,260.9375 160,356.2841 160,473.78125 C 160,591.2784 255.3466,686.65625 372.84375,686.65625 C 490.3409,686.65625 585.71875,591.2784 585.71875,473.78125 C 585.71875,356.2841 490.3409,260.9375 372.84375,260.9375 z M 372.84375,420.9375 C 402.02089,420.9375 425.71875,444.60411 425.71875,473.78125 C 425.71875,502.95839 402.02089,526.65625 372.84375,526.65625 C 343.66661,526.65625 320,502.95839 320,473.78125 C 320,444.60411 343.66661,420.9375 372.84375,420.9375 z " style="color:#000000;fill:url(#linearGradient3284);fill-opacity:1;fill-rule:nonzero;stroke:none;stroke-width:7.19999981;stroke-linecap:butt;stroke-linejoin:round;marker:none;marker-start:none;marker-mid:none;marker-end:none;stroke-miterlimit:4;stroke-dasharray:none;stroke-dashoffset:0;stroke-opacity:1;visibility:visible;display:inline;overflow:visible;enable-background:accumulate"/>
      <path transform="matrix(0.99712, 0.0758452, -0.0758452, 0.99712, 45.9494, -14.8451)" clip-path="url(#clipPath4244)" sodipodi:nodetypes="ccccccc" id="rect3138" d="M 328.92758,254.85514 L 370.44409,471.83841 L 458.07316,674.63511 L 412.21696,688.74279 L 370.70046,471.75954 L 283.07138,268.96282 L 328.92758,254.85514 z " style="opacity:0.27099238;color:#000000;fill:#ff0000;fill-opacity:1;fill-rule:nonzero;stroke:none;stroke-width:20;stroke-linecap:butt;stroke-linejoin:round;marker:none;marker-start:none;marker-mid:none;marker-end:none;stroke-miterlimit:4;stroke-dashoffset:0;stroke-opacity:1;visibility:visible;display:inline;overflow:visible;filter:url(#filter11193);enable-background:accumulate"/>
      <path transform="matrix(0.999938, -0.0110966, 0.0110966, 0.999938, 3.73431, 16.0375)" clip-path="url(#clipPath4240)" style="opacity:0.27099238;color:#000000;fill:#ffff00;fill-opacity:1;fill-rule:nonzero;stroke:none;stroke-width:20;stroke-linecap:butt;stroke-linejoin:round;marker:none;marker-start:none;marker-mid:none;marker-end:none;stroke-miterlimit:4;stroke-dashoffset:0;stroke-opacity:1;visibility:visible;display:inline;overflow:visible;filter:url(#filter11189);enable-background:accumulate" d="M 293.5497,264.71402 L 370.45249,471.8593 L 491.10033,656.97358 L 447.59484,678.88391 L 370.69205,471.73865 L 250.04421,286.62435 L 293.5497,264.71402 z " id="path4112" sodipodi:nodetypes="ccccccc"/>
      <path transform="matrix(0.995014, -0.0997301, 0.0997301, 0.995014, -36.2242, 51.154)" clip-path="url(#clipPath4236)" sodipodi:nodetypes="ccccccc" id="path4114" d="M 260.9312,279.90039 L 370.46408,471.87823 L 519.47663,634.93504 L 481.21334,662.96499 L 370.68047,471.71972 L 220.66791,309.39544 L 260.9312,279.90039 z " style="opacity:0.27099238;color:#000000;fill:#00ff00;fill-opacity:1;fill-rule:nonzero;stroke:none;stroke-width:20;stroke-linecap:butt;stroke-linejoin:round;marker:none;marker-start:none;marker-mid:none;marker-end:none;stroke-miterlimit:4;stroke-dashoffset:0;stroke-opacity:1;visibility:visible;display:inline;overflow:visible;filter:url(#filter11185);enable-background:accumulate"/>
      <path transform="matrix(0.978486, -0.206312, 0.206312, 0.978486, -80.3258, 98.3888)" clip-path="url(#clipPath4232)" style="opacity:0.27099238;color:#000000;fill:#0000ff;fill-opacity:1;fill-rule:nonzero;stroke:none;stroke-width:20;stroke-linecap:butt;stroke-linejoin:round;marker:none;marker-start:none;marker-mid:none;marker-end:none;stroke-miterlimit:4;stroke-dashoffset:0;stroke-opacity:1;visibility:visible;display:inline;overflow:visible;filter:url(#filter11181);enable-background:accumulate" d="M 233.03743,298.24454 L 370.47877,471.89512 L 546.90688,605.46063 L 509.07971,644.35339 L 370.66578,471.70283 L 193.26506,339.1373 L 233.03743,298.24454 z " id="path4116" sodipodi:nodetypes="ccccccc"/>
      <path transform="matrix(0.886014, 0, 0, 0.886014, 29.4748, 60.037)" d="M 471.42857 480.93362 A 74.285713 74.285713 0 1 1  322.85714,480.93362 A 74.285713 74.285713 0 1 1  471.42857 480.93362 z" sodipodi:ry="74.285713" sodipodi:rx="74.285713" sodipodi:cy="480.93362" sodipodi:cx="397.14285" id="path2165" style="opacity:0.38931298;color:#000000;fill:none;fill-opacity:1;fill-rule:nonzero;stroke:#d2d2d2;stroke-width:20;stroke-linecap:butt;stroke-linejoin:round;marker:none;marker-start:none;marker-mid:none;marker-end:none;stroke-miterlimit:4;stroke-dasharray:none;stroke-dashoffset:0;stroke-opacity:1;visibility:visible;display:inline;overflow:visible;enable-background:accumulate" sodipodi:type="arc"/>
    </g>
  </g>
</svg>