<?xml version="1.0" encoding="UTF-8" standalone="no"?>
<!-- Created with Inkscape (http://www.inkscape.org/) -->
<svg xmlns:dc="http://purl.org/dc/elements/1.1/" xmlns:cc="http://creativecommons.org/ns#" xmlns:rdf="http://www.w3.org/1999/02/22-rdf-syntax-ns#" xmlns:svg="http://www.w3.org/2000/svg" xmlns="http://www.w3.org/2000/svg" xmlns:xlink="http://www.w3.org/1999/xlink" xmlns:sodipodi="http://sodipodi.sourceforge.net/DTD/sodipodi-0.dtd" xmlns:inkscape="http://www.inkscape.org/namespaces/inkscape" id="svg2" sodipodi:version="0.32" inkscape:version="0.46" width="248.26405" height="280.93063" sodipodi:docname="Film_Slate.svg" inkscape:output_extension="org.inkscape.output.svg.inkscape" version="1.0" inkscape:export-filename="/home/maidis/Desktop/filmseysi.png" inkscape:export-xdpi="25.004717" inkscape:export-ydpi="25.004717">
  <sodipodi:namedview inkscape:window-height="895" inkscape:window-width="1280" inkscape:pageshadow="2" inkscape:pageopacity="0.0" guidetolerance="10.0" gridtolerance="10.0" objecttolerance="10.0" borderopacity="1.0" bordercolor="#666666" pagecolor="#ffffff" id="base" showgrid="false" inkscape:zoom="1.52661" inkscape:cx="237.08721" inkscape:cy="160.21079" inkscape:window-x="-4" inkscape:window-y="38" inkscape:current-layer="svg2" showguides="true" inkscape:guide-bbox="true"/>
  <metadata id="metadata7">
    <rdf:RDF>
      <cc:Work rdf:about="">
        <dc:format>image/svg+xml</dc:format>
        <dc:type rdf:resource="http://purl.org/dc/dcmitype/StillImage"/>
      </cc:Work>
    </rdf:RDF>
  </metadata>
  <defs id="defs5">
    <linearGradient id="linearGradient4801">
      <stop style="stop-color: rgb(255, 255, 255); stop-opacity: 1;" offset="0" id="stop4803"/>
      <stop style="stop-color: rgb(201, 201, 201); stop-opacity: 1;" offset="1" id="stop4805"/>
    </linearGradient>
    <linearGradient id="linearGradient4759">
      <stop id="stop4761" offset="0" style="stop-color: rgb(161, 174, 192); stop-opacity: 1;"/>
      <stop style="stop-color: rgb(208, 214, 223); stop-opacity: 1;" offset="1" id="stop4765"/>
    </linearGradient>
    <linearGradient id="linearGradient4711">
      <stop id="stop4713" offset="0" style="stop-color: rgb(7, 7, 7); stop-opacity: 1;"/>
      <stop style="stop-color: rgb(63, 63, 63); stop-opacity: 1;" offset="0.08170515" id="stop4717"/>
      <stop id="stop4719" offset="0.60588205" style="stop-color: rgb(0, 0, 0); stop-opacity: 1;"/>
      <stop id="stop4715" offset="1" style="stop-color: rgb(50, 50, 50); stop-opacity: 1;"/>
    </linearGradient>
    <linearGradient inkscape:collect="always" xlink:href="#linearGradient3297" id="linearGradient4703" gradientUnits="userSpaceOnUse" x1="267.75684" y1="256.10593" x2="267.75684" y2="281.86359"/>
    <linearGradient id="linearGradient3297">
      <stop id="stop3299" offset="0" style="stop-color: rgb(203, 203, 203); stop-opacity: 1;"/>
      <stop style="stop-color: rgb(255, 255, 255); stop-opacity: 1;" offset="0.102252" id="stop3303"/>
      <stop id="stop3313" offset="0.3970786" style="stop-color: rgb(255, 255, 255); stop-opacity: 1;"/>
      <stop id="stop3301" offset="1" style="stop-color: rgb(203, 203, 203); stop-opacity: 1;"/>
    </linearGradient>
    <linearGradient id="linearGradient3245">
      <stop id="stop3247" offset="0" style="stop-color: rgb(255, 255, 255); stop-opacity: 1;"/>
      <stop id="stop3249" offset="1" style="stop-color: rgb(255, 255, 255); stop-opacity: 0;"/>
    </linearGradient>
    <linearGradient id="linearGradient3207">
      <stop style="stop-color: rgb(6, 114, 215); stop-opacity: 1;" offset="0" id="stop3209"/>
      <stop id="stop3211" offset="1" style="stop-color: rgb(57, 157, 250); stop-opacity: 1;"/>
    </linearGradient>
    <linearGradient id="linearGradient3197">
      <stop id="stop3199" offset="0" style="stop-color: rgb(6, 114, 215); stop-opacity: 1;"/>
      <stop style="stop-color: rgb(57, 157, 250); stop-opacity: 1;" offset="1" id="stop3203"/>
    </linearGradient>
    <linearGradient id="linearGradient2406">
      <stop style="stop-color: rgb(38, 38, 38); stop-opacity: 1;" offset="0" id="stop2408"/>
      <stop style="stop-color: rgb(137, 137, 137); stop-opacity: 1;" offset="1" id="stop2410"/>
    </linearGradient>
    <inkscape:perspective sodipodi:type="inkscape:persp3d" inkscape:vp_x="0 : 526.18109 : 1" inkscape:vp_y="0 : 1000 : 0" inkscape:vp_z="744.09448 : 526.18109 : 1" inkscape:persp3d-origin="372.04724 : 350.78739 : 1" id="perspective9"/>
    <linearGradient inkscape:collect="always" xlink:href="#linearGradient2406" id="linearGradient2412" x1="424.87292" y1="413.6265" x2="154.86871" y2="414.70911" gradientUnits="userSpaceOnUse" gradientTransform="matrix(0.977613, 2.04475e-08, -2.16262e-08, 1.03397, -195.011, -226.489)"/>
    <linearGradient inkscape:collect="always" xlink:href="#linearGradient3207" id="linearGradient3235" x1="411.90366" y1="411.2742" x2="220.90366" y2="412.20056" gradientUnits="userSpaceOnUse" gradientTransform="matrix(0.977741, 2.04502e-08, -2.04502e-08, 0.977741, -195.051, -198.717)"/>
    <linearGradient inkscape:collect="always" xlink:href="#linearGradient3245" id="linearGradient3243" x1="305.20639" y1="333" x2="306.29947" y2="427.28561" gradientUnits="userSpaceOnUse" gradientTransform="matrix(0.972197, -0.103974, 0.103974, 0.972197, -215.077, -176.848)"/>
    <linearGradient inkscape:collect="always" xlink:href="#linearGradient2406" id="linearGradient3257" x1="418.78357" y1="325.58447" x2="220.07611" y2="455.7402" gradientUnits="userSpaceOnUse" gradientTransform="matrix(0.977613, 2.04475e-08, -2.16262e-08, 1.03397, -195.011, -226.489)"/>
    <linearGradient inkscape:collect="always" xlink:href="#linearGradient2406" id="linearGradient3265" x1="404.78912" y1="339.48013" x2="224.31268" y2="470.56219" gradientUnits="userSpaceOnUse" gradientTransform="matrix(0.977741, 2.04502e-08, -2.04502e-08, 0.977741, -195.051, -198.717)"/>
    <linearGradient inkscape:collect="always" xlink:href="#linearGradient3297" id="linearGradient3311" x1="267.75684" y1="256.10593" x2="267.75684" y2="281.86359" gradientUnits="userSpaceOnUse"/>
    <linearGradient inkscape:collect="always" xlink:href="#linearGradient4711" id="linearGradient4709" gradientUnits="userSpaceOnUse" x1="267.75684" y1="256.10593" x2="267.75684" y2="281.86359" gradientTransform="matrix(0.900351, -0.264709, 0.264709, 0.900351, -200.124, -125.483)"/>
    <linearGradient inkscape:collect="always" xlink:href="#linearGradient3297" id="linearGradient4721" gradientUnits="userSpaceOnUse" x1="267.75684" y1="256.10593" x2="267.75684" y2="281.86359" gradientTransform="matrix(0.938458, 0, 0, 0.938458, -156.583, -176.82)"/>
    <linearGradient inkscape:collect="always" xlink:href="#linearGradient3297" id="linearGradient4727" gradientUnits="userSpaceOnUse" gradientTransform="matrix(0.938458, 0, 0, 0.938458, -365.647, -149.266)" x1="267.75684" y1="256.10593" x2="267.75684" y2="281.86359"/>
    <linearGradient inkscape:collect="always" xlink:href="#linearGradient4711" id="linearGradient4729" gradientUnits="userSpaceOnUse" gradientTransform="matrix(-0.933136, 0.099797, 0.099797, 0.933136, 347.693, -187.313)" x1="267.75684" y1="256.10593" x2="267.75684" y2="281.86359"/>
    <linearGradient inkscape:collect="always" xlink:href="#linearGradient4759" id="linearGradient4757" x1="67.970581" y1="325.40063" x2="43.175102" y2="274.21841" gradientUnits="userSpaceOnUse" gradientTransform="matrix(0.666955, -0.161717, 0.161717, 0.666955, -68.7644, -107.754)"/>
    <linearGradient inkscape:collect="always" xlink:href="#linearGradient3245" id="linearGradient4773" x1="39.704185" y1="269.16348" x2="63.587685" y2="309.17517" gradientUnits="userSpaceOnUse" gradientTransform="matrix(0.666955, -0.161717, 0.161717, 0.666955, -68.7644, -107.754)"/>
    <linearGradient inkscape:collect="always" xlink:href="#linearGradient4801" id="linearGradient4807" x1="43.65543" y1="253.94258" x2="43.65543" y2="261.70099" gradientUnits="userSpaceOnUse"/>
    <linearGradient inkscape:collect="always" xlink:href="#linearGradient4801" id="linearGradient4809" x1="43.65543" y1="264.16953" x2="43.65543" y2="252.86359" gradientUnits="userSpaceOnUse"/>
    <linearGradient inkscape:collect="always" xlink:href="#linearGradient4801" id="linearGradient4813" gradientUnits="userSpaceOnUse" x1="43.65543" y1="253.94258" x2="43.65543" y2="261.70099"/>
    <linearGradient inkscape:collect="always" xlink:href="#linearGradient4801" id="linearGradient4815" gradientUnits="userSpaceOnUse" x1="43.65543" y1="264.16953" x2="43.65543" y2="252.86359"/>
    <linearGradient inkscape:collect="always" xlink:href="#linearGradient2406" id="linearGradient4839" gradientUnits="userSpaceOnUse" gradientTransform="matrix(0.999869, 0, 0, 1.05751, 38.3787, -490.695)" x1="424.87292" y1="413.6265" x2="147.66225" y2="414.70911"/>
    <linearGradient inkscape:collect="always" xlink:href="#linearGradient2406" id="linearGradient4841" gradientUnits="userSpaceOnUse" gradientTransform="matrix(0.999869, 0, 0, 1.05751, 38.3787, -490.695)" x1="418.78357" y1="325.58447" x2="220.07611" y2="455.7402"/>
    <linearGradient inkscape:collect="always" xlink:href="#linearGradient3207" id="linearGradient4843" gradientUnits="userSpaceOnUse" x1="411.90366" y1="411.2742" x2="220.90366" y2="412.20056" gradientTransform="translate(38.3372, -462.291)"/>
    <linearGradient inkscape:collect="always" xlink:href="#linearGradient2406" id="linearGradient4845" gradientUnits="userSpaceOnUse" x1="404.78912" y1="339.48013" x2="224.31268" y2="470.56219" gradientTransform="translate(38.3372, -462.291)"/>
    <linearGradient inkscape:collect="always" xlink:href="#linearGradient3245" id="linearGradient4847" gradientUnits="userSpaceOnUse" x1="305.20639" y1="333" x2="306.29947" y2="427.28561" gradientTransform="translate(38.3372, -462.291)"/>
    <linearGradient inkscape:collect="always" xlink:href="#linearGradient3297" id="linearGradient4849" gradientUnits="userSpaceOnUse" gradientTransform="matrix(0.959823, 0, 0, 0.959823, 120.09, -393.299)" x1="267.75684" y1="256.10593" x2="267.75684" y2="281.86359"/>
    <linearGradient inkscape:collect="always" xlink:href="#linearGradient4711" id="linearGradient4851" gradientUnits="userSpaceOnUse" gradientTransform="matrix(0.944417, -0.171276, 0.171276, 0.944417, 47.9569, -408.428)" x1="267.75684" y1="256.10593" x2="267.75684" y2="281.86359"/>
    <linearGradient inkscape:collect="always" xlink:href="#linearGradient3297" id="linearGradient4853" gradientUnits="userSpaceOnUse" gradientTransform="matrix(0.959823, 0, 0, 0.959823, -611.8, -411.714)" x1="267.75684" y1="256.10593" x2="267.75684" y2="281.86359"/>
    <linearGradient inkscape:collect="always" xlink:href="#linearGradient4711" id="linearGradient4855" gradientUnits="userSpaceOnUse" gradientTransform="matrix(-0.959823, 0, 0, 0.959823, 611.794, -411.725)" x1="267.75684" y1="256.10593" x2="267.75684" y2="281.86359"/>
    <linearGradient inkscape:collect="always" xlink:href="#linearGradient4759" id="linearGradient4857" gradientUnits="userSpaceOnUse" gradientTransform="matrix(0.69586, -0.0919206, 0.0919206, 0.69586, 179.617, -376.111)" x1="67.970581" y1="325.40063" x2="43.175102" y2="274.21841"/>
    <linearGradient inkscape:collect="always" xlink:href="#linearGradient3245" id="linearGradient4859" gradientUnits="userSpaceOnUse" gradientTransform="matrix(0.69586, -0.0919206, 0.0919206, 0.69586, 179.617, -376.111)" x1="39.704185" y1="269.16348" x2="63.587685" y2="309.17517"/>
    <linearGradient inkscape:collect="always" xlink:href="#linearGradient4801" id="linearGradient4861" gradientUnits="userSpaceOnUse" x1="43.65543" y1="253.94258" x2="43.65543" y2="261.70099"/>
    <linearGradient inkscape:collect="always" xlink:href="#linearGradient4801" id="linearGradient4863" gradientUnits="userSpaceOnUse" x1="43.65543" y1="264.16953" x2="43.65543" y2="252.86359"/>
    <linearGradient inkscape:collect="always" xlink:href="#linearGradient4801" id="linearGradient4865" gradientUnits="userSpaceOnUse" x1="43.65543" y1="253.94258" x2="43.65543" y2="261.70099"/>
    <linearGradient inkscape:collect="always" xlink:href="#linearGradient4801" id="linearGradient4867" gradientUnits="userSpaceOnUse" x1="43.65543" y1="264.16953" x2="43.65543" y2="252.86359"/>
    <linearGradient inkscape:collect="always" xlink:href="#linearGradient2406" id="linearGradient4891" gradientUnits="userSpaceOnUse" gradientTransform="matrix(0.999869, 0, 0, 1.05751, 15.4521, -461.217)" x1="424.87292" y1="413.6265" x2="154.86871" y2="414.70911"/>
    <linearGradient inkscape:collect="always" xlink:href="#linearGradient2406" id="linearGradient4893" gradientUnits="userSpaceOnUse" gradientTransform="matrix(0.999869, 0, 0, 1.05751, 15.4521, -461.217)" x1="418.78357" y1="325.58447" x2="220.07611" y2="455.7402"/>
    <linearGradient inkscape:collect="always" xlink:href="#linearGradient3207" id="linearGradient4895" gradientUnits="userSpaceOnUse" x1="411.90366" y1="411.2742" x2="220.90366" y2="412.20056" gradientTransform="translate(15.4106, -432.814)"/>
    <linearGradient inkscape:collect="always" xlink:href="#linearGradient2406" id="linearGradient4897" gradientUnits="userSpaceOnUse" x1="404.78912" y1="339.48013" x2="224.31268" y2="470.56219" gradientTransform="translate(15.4106, -432.814)"/>
    <linearGradient inkscape:collect="always" xlink:href="#linearGradient3245" id="linearGradient4899" gradientUnits="userSpaceOnUse" x1="305.20639" y1="333" x2="306.29947" y2="427.28561" gradientTransform="translate(15.4106, -432.814)"/>
    <linearGradient inkscape:collect="always" xlink:href="#linearGradient3297" id="linearGradient4901" gradientUnits="userSpaceOnUse" gradientTransform="matrix(0.959823, 0, 0, 0.959823, 92.2711, -368.386)" x1="267.75684" y1="256.10593" x2="267.75684" y2="281.86359"/>
    <linearGradient inkscape:collect="always" xlink:href="#linearGradient4711" id="linearGradient4903" gradientUnits="userSpaceOnUse" gradientTransform="matrix(0.944417, -0.171276, 0.171276, 0.944417, 25.0303, -378.951)" x1="267.75684" y1="256.10593" x2="267.75684" y2="281.86359"/>
    <linearGradient inkscape:collect="always" xlink:href="#linearGradient3297" id="linearGradient4905" gradientUnits="userSpaceOnUse" gradientTransform="matrix(0.959823, 0, 0, 0.959823, -588.874, -382.237)" x1="267.75684" y1="256.10593" x2="267.75684" y2="281.86359"/>
    <linearGradient inkscape:collect="always" xlink:href="#linearGradient4711" id="linearGradient4907" gradientUnits="userSpaceOnUse" gradientTransform="matrix(-0.959823, 0, 0, 0.959823, 588.867, -382.248)" x1="267.75684" y1="256.10593" x2="267.75684" y2="281.86359"/>
    <linearGradient inkscape:collect="always" xlink:href="#linearGradient4759" id="linearGradient4909" gradientUnits="userSpaceOnUse" gradientTransform="matrix(0.69586, -0.0919206, 0.0919206, 0.69586, 156.691, -346.634)" x1="67.970581" y1="325.40063" x2="43.175102" y2="274.21841"/>
    <linearGradient inkscape:collect="always" xlink:href="#linearGradient3245" id="linearGradient4911" gradientUnits="userSpaceOnUse" gradientTransform="matrix(0.69586, -0.0919206, 0.0919206, 0.69586, 156.691, -346.634)" x1="39.704185" y1="269.16348" x2="63.587685" y2="309.17517"/>
    <linearGradient inkscape:collect="always" xlink:href="#linearGradient4801" id="linearGradient4913" gradientUnits="userSpaceOnUse" x1="43.65543" y1="253.94258" x2="43.65543" y2="261.70099"/>
    <linearGradient inkscape:collect="always" xlink:href="#linearGradient4801" id="linearGradient4915" gradientUnits="userSpaceOnUse" x1="43.65543" y1="264.16953" x2="43.65543" y2="252.86359"/>
    <linearGradient inkscape:collect="always" xlink:href="#linearGradient4801" id="linearGradient4917" gradientUnits="userSpaceOnUse" x1="43.65543" y1="253.94258" x2="43.65543" y2="261.70099"/>
    <linearGradient inkscape:collect="always" xlink:href="#linearGradient4801" id="linearGradient4919" gradientUnits="userSpaceOnUse" x1="43.65543" y1="264.16953" x2="43.65543" y2="252.86359"/>
    <linearGradient inkscape:collect="always" xlink:href="#linearGradient3297" id="linearGradient6496" x1="-454.91516" y1="-46.507725" x2="-457.96301" y2="89.505424" gradientUnits="userSpaceOnUse" gradientTransform="matrix(0.294853, 0, 0, 0.294853, 241.793, 132.751)"/>
    <linearGradient inkscape:collect="always" xlink:href="#linearGradient2406" id="linearGradient6498" gradientUnits="userSpaceOnUse" gradientTransform="matrix(0.977741, 2.04502e-08, -2.04502e-08, 0.977741, -195.051, -198.717)" x1="404.78912" y1="339.48013" x2="224.31268" y2="470.56219"/>
  </defs>
  <rect ry="9.7912779" y="107.80321" x="8.8237953" height="176.15758" width="210.97142" id="rect2404" style="fill: url(#linearGradient2412) rgb(0, 0, 0); fill-opacity: 1; stroke: url(#linearGradient3257) rgb(0, 0, 0); stroke-width: 1.00539; stroke-miterlimit: 4; stroke-dasharray: none; stroke-opacity: 1;" transform="matrix(0.99433, -0.106342, 0.106342, 0.99433, 0, 0)" inkscape:export-filename="/home/maidis/Desktop/rect4268.png" inkscape:export-xdpi="18.919405" inkscape:export-ydpi="18.919405"/>
  <rect style="fill: url(#linearGradient3235) rgb(0, 0, 0); fill-opacity: 1; stroke: url(#linearGradient3265) rgb(0, 0, 0); stroke-width: 0.977741; stroke-opacity: 1;" id="rect2396" width="185.77075" height="146.66113" x="21.424137" y="127.3549" ry="8.1517925" transform="matrix(0.99433, -0.106342, 0.106342, 0.99433, 0, 0)" inkscape:export-filename="/home/maidis/Desktop/rect4268.png" inkscape:export-xdpi="18.919405" inkscape:export-ydpi="18.919405"/>
  <path transform="matrix(0.99433, -0.106342, 0.106342, 0.99433, 0, 0)" style="font-size:10.06070042px;font-style:normal;font-weight:normal;fill:url(#linearGradient6496) #000000;fill-opacity:1;stroke:none;stroke-width:1px;stroke-linecap:butt;stroke-linejoin:miter;stroke-opacity:1;font-family:Bitstream Vera Sans" d="M 25.716314,131.38831 L 41.227347,131.38831 L 41.227347,133.4761 L 34.718363,133.4761 L 34.718363,149.724 L 32.225299,149.724 L 32.225299,133.4761 L 25.716314,133.4761 L 25.716314,131.38831 M 43.351979,131.38831 L 45.845042,131.38831 L 45.845042,142.52727 C 45.845038,144.49225 46.201189,145.90867 46.913498,146.77653 C 47.625796,147.63621 48.780218,148.06605 50.376769,148.06605 C 51.965115,148.06605 53.115444,147.63621 53.827759,146.77653 C 54.54005,145.90867 54.896202,144.49225 54.896215,142.52727 L 54.896215,131.38831 L 57.389279,131.38831 L 57.389279,142.8343 C 57.389263,145.22503 56.795677,147.03035 55.608519,148.25027 C 54.42952,149.47019 52.685605,150.08015 50.376769,150.08015 C 48.059728,150.08015 46.307626,149.47019 45.120457,148.25027 C 43.941469,147.03035 43.351976,145.22503 43.351979,142.8343 L 43.351979,131.38831 M 61.171859,131.38831 L 63.836859,131.38831 L 68.393148,138.20432 L 72.973999,131.38831 L 75.638999,131.38831 L 69.744069,140.19386 L 76.031994,149.724 L 73.366995,149.724 L 68.208931,141.9255 L 63.014025,149.724 L 60.336744,149.724 L 66.882572,139.93596 L 61.171859,131.38831 M 96.001066,141.12723 C 96.533236,141.30736 97.049041,141.69217 97.548485,142.28165 C 98.056091,142.87115 98.563709,143.6817 99.071342,144.71331 L 101.58897,149.724 L 98.923969,149.724 L 96.578278,145.02034 C 95.972399,143.79223 95.382907,142.97759 94.809799,142.5764 C 94.244859,142.17522 93.47115,141.97463 92.488671,141.97462 L 89.786828,141.97462 L 89.786828,149.724 L 87.306045,149.724 L 87.306045,131.38831 L 92.906228,131.38831 C 95.002193,131.38833 96.565985,131.82636 97.59761,132.70239 C 98.629208,133.57846 99.145014,134.90072 99.145029,136.66919 C 99.145014,137.82362 98.87483,138.78155 98.334476,139.54296 C 97.802282,140.3044 97.024479,140.83249 96.001066,141.12723 M 89.786828,133.42698 L 89.786828,139.93596 L 92.906228,139.93596 C 94.10158,139.93597 95.002193,139.66169 95.608071,139.11313 C 96.222115,138.55639 96.529142,137.74175 96.529154,136.66919 C 96.529142,135.59665 96.222115,134.79019 95.608071,134.24981 C 95.002193,133.70127 94.10158,133.42699 92.906228,133.42698 L 89.786828,133.42698 M 104.79434,131.38831 L 116.3877,131.38831 L 116.3877,133.4761 L 107.27512,133.4761 L 107.27512,138.90435 L 116.00698,138.90435 L 116.00698,140.99213 L 107.27512,140.99213 L 107.27512,147.63621 L 116.60876,147.63621 L 116.60876,149.724 L 104.79434,149.724 L 104.79434,131.38831 M 118.16846,131.38831 L 133.67949,131.38831 L 133.67949,133.4761 L 127.1705,133.4761 L 127.1705,149.724 L 124.67744,149.724 L 124.67744,133.4761 L 118.16846,133.4761 L 118.16846,131.38831 M 135.80412,131.38831 L 138.29719,131.38831 L 138.29719,142.52727 C 138.29718,144.49225 138.65333,145.90867 139.36564,146.77653 C 140.07794,147.63621 141.23236,148.06605 142.82892,148.06605 C 144.41726,148.06605 145.56759,147.63621 146.27991,146.77653 C 146.9922,145.90867 147.34835,144.49225 147.34836,142.52727 L 147.34836,131.38831 L 149.84142,131.38831 L 149.84142,142.8343 C 149.84141,145.22503 149.24782,147.03035 148.06066,148.25027 C 146.88167,149.47019 145.13775,150.08015 142.82892,150.08015 C 140.51187,150.08015 138.75977,149.47019 137.5726,148.25027 C 136.39361,147.03035 135.80412,145.22503 135.80412,142.8343 L 135.80412,131.38831 M 163.20326,141.12723 C 163.73543,141.30736 164.25124,141.69217 164.75068,142.28165 C 165.25829,142.87115 165.76591,143.6817 166.27354,144.71331 L 168.79117,149.724 L 166.12617,149.724 L 163.78048,145.02034 C 163.1746,143.79223 162.5851,142.97759 162.012,142.5764 C 161.44706,142.17522 160.67335,141.97463 159.69087,141.97462 L 156.98903,141.97462 L 156.98903,149.724 L 154.50824,149.724 L 154.50824,131.38831 L 160.10843,131.38831 C 162.20439,131.38833 163.76818,131.82636 164.79981,132.70239 C 165.83141,133.57846 166.34721,134.90072 166.34723,136.66919 C 166.34721,137.82362 166.07703,138.78155 165.53667,139.54296 C 165.00448,140.3044 164.22668,140.83249 163.20326,141.12723 M 156.98903,133.42698 L 156.98903,139.93596 L 160.10843,139.93596 C 161.30378,139.93597 162.20439,139.66169 162.81027,139.11313 C 163.42431,138.55639 163.73134,137.74175 163.73135,136.66919 C 163.73134,135.59665 163.42431,134.79019 162.81027,134.24981 C 162.20439,133.70127 161.30378,133.42699 160.10843,133.42698 L 156.98903,133.42698 M 171.99652,131.38831 L 175.33698,131.38831 L 183.46707,146.72741 L 183.46707,131.38831 L 185.87417,131.38831 L 185.87417,149.724 L 182.53371,149.724 L 174.40362,134.3849 L 174.40362,149.724 L 171.99652,149.724 L 171.99652,131.38831 M 201.80276,131.99009 L 201.80276,134.40946 C 200.8612,133.95917 199.97287,133.62349 199.13776,133.40241 C 198.30264,133.18137 197.49618,133.07084 196.71839,133.07082 C 195.36746,133.07084 194.32357,133.33284 193.58671,133.85681 C 192.85802,134.38082 192.49368,135.12588 192.49369,136.09197 C 192.49368,136.90254 192.73521,137.51659 193.21827,137.93414 C 193.70951,138.34352 194.63469,138.67511 195.9938,138.92891 L 197.4921,139.23594 C 199.34244,139.58801 200.70564,140.21025 201.5817,141.10266 C 202.46593,141.98691 202.90805,143.17408 202.90806,144.66418 C 202.90805,146.44085 202.31037,147.78768 201.11502,148.70467 C 199.92784,149.62166 198.18392,150.08015 195.88327,150.08015 C 195.0154,150.08015 194.09022,149.9819 193.10774,149.7854 C 192.13344,149.58891 191.12229,149.29825 190.07431,148.91345 L 190.07431,146.35898 C 191.08136,146.92391 192.06794,147.34965 193.03406,147.63621 C 194.00016,147.92277 194.9499,148.06605 195.88327,148.06605 C 197.29968,148.06605 198.3927,147.78768 199.16233,147.23094 C 199.93193,146.67419 200.31674,145.88002 200.31675,144.8484 C 200.31674,143.94779 200.03837,143.24368 199.48163,142.73605 C 198.93307,142.22844 198.02836,141.84773 196.76751,141.59391 L 195.25694,141.29916 C 193.40658,140.93074 192.06794,140.35353 191.24101,139.56753 C 190.41408,138.78155 190.00062,137.68853 190.00062,136.28847 C 190.00062,134.66738 190.56965,133.39015 191.7077,132.45677 C 192.85393,131.52342 194.43,131.05674 196.43592,131.05672 C 197.29559,131.05674 198.17164,131.13452 199.06408,131.29006 C 199.95649,131.44564 200.86939,131.67898 201.80276,131.99009" id="text6484"/>
  <rect ry="8.1517925" y="127.3549" x="21.424137" height="146.66113" width="185.77075" id="rect6482" style="fill: rgb(255, 255, 255); fill-opacity: 0.20462; stroke: url(#linearGradient6498) rgb(0, 0, 0); stroke-width: 0.977741; stroke-opacity: 1;" transform="matrix(0.99433, -0.106342, 0.106342, 0.99433, 0, 0)" inkscape:export-filename="/home/maidis/Desktop/rect4268.png" inkscape:export-xdpi="18.919405" inkscape:export-ydpi="18.919405"/>
  <path style="opacity: 0.5; fill: url(#linearGradient3243) rgb(0, 0, 0); fill-opacity: 1; stroke: none; stroke-opacity: 1;" d="M 42.960587,123.49148 C 38.470089,123.97173 35.236109,127.9803 35.716359,132.4708 L 42.055548,191.7444 C 62.955192,193.97365 86.316146,193.98622 110.78611,191.36921 C 157.87493,186.33316 198.93968,172.61695 224.98257,155.24925 L 220.43369,112.71566 C 219.95344,108.22516 215.94486,104.99117 211.45439,105.47141 L 42.960587,123.49148 z" id="rect2414" inkscape:export-filename="/home/maidis/Desktop/rect4268.png" inkscape:export-xdpi="18.919405" inkscape:export-ydpi="18.919405"/>
  <rect style="opacity: 1; fill: url(#linearGradient4721) rgb(0, 0, 0); fill-opacity: 1; stroke: none; stroke-width: 1; stroke-miterlimit: 4; stroke-dasharray: none; stroke-opacity: 1;" id="rect3287" width="225.22986" height="26.276817" x="-17.919819" y="60.950459" ry="0" transform="matrix(0.959394, -0.282068, 0.282068, 0.959394, 0, 0)" inkscape:export-filename="/home/maidis/Desktop/rect4268.png" inkscape:export-xdpi="18.919405" inkscape:export-ydpi="18.919405"/>
  <path style="opacity: 0.85; fill: url(#linearGradient4709) rgb(0, 0, 0); fill-opacity: 1; stroke: none; stroke-width: 1; stroke-miterlimit: 4; stroke-dasharray: none; stroke-opacity: 1;" d="M 8.1324512,61.133858 L 3.5631442,75.74379 L 7.3848802,88.742598 L 16.022598,86.203059 L 25.436074,56.04648 L 8.1324512,61.133858 z M 60.380955,45.772484 L 50.939344,75.937311 L 68.271126,70.841671 L 77.712722,40.676826 L 60.380955,45.772484 z M 112.65759,30.402802 L 103.21598,60.567661 L 120.54775,55.47202 L 129.96121,25.315443 L 112.65759,30.402802 z M 164.90608,15.04143 L 155.46447,45.206275 L 172.79624,40.110635 L 182.23785,9.945776 L 164.90608,15.04143 z M 216.55362,1.6908153 L 207.74111,29.836622 L 223.46913,25.212495 L 216.55362,1.6908153 z" id="path4707" inkscape:export-filename="/home/maidis/Desktop/rect4268.png" inkscape:export-xdpi="18.919405" inkscape:export-ydpi="18.919405"/>
  <rect ry="0" y="88.505112" x="-226.98358" height="26.276817" width="225.22986" id="rect4723" style="opacity: 1; fill: url(#linearGradient4727) rgb(0, 0, 0); fill-opacity: 1; stroke: none; stroke-width: 1; stroke-miterlimit: 4; stroke-dasharray: none; stroke-opacity: 1;" transform="matrix(-0.99433, 0.106342, 0.106342, 0.99433, 0, 0)" inkscape:export-filename="/home/maidis/Desktop/rect4268.png" inkscape:export-xdpi="18.919405" inkscape:export-ydpi="18.919405"/>
  <path id="path4725" d="M 226.6517,64.769879 L 236.46173,76.52114 L 237.90255,89.993303 L 228.95028,90.950732 L 208.71797,66.687853 L 226.6517,64.769879 z M 172.50062,70.561224 L 192.76209,94.820987 L 174.79922,96.742077 L 154.53775,72.482315 L 172.50062,70.561224 z M 118.3204,76.355687 L 138.58187,100.61545 L 120.619,102.53654 L 100.38669,78.273661 L 118.3204,76.355687 z M 64.169346,82.147032 L 84.430796,106.40679 L 66.46792,108.32788 L 46.20647,84.068123 L 64.169346,82.147032 z M 11.342663,89.566397 L 30.250573,112.20126 L 13.949841,113.94459 L 11.342663,89.566397 z" style="opacity: 0.85; fill: url(#linearGradient4729) rgb(0, 0, 0); fill-opacity: 1; stroke: none; stroke-width: 1; stroke-miterlimit: 4; stroke-dasharray: none; stroke-opacity: 1;" inkscape:export-filename="/home/maidis/Desktop/rect4268.png" inkscape:export-xdpi="18.919405" inkscape:export-ydpi="18.919405"/>
  <path style="fill: url(#linearGradient4757) rgb(0, 0, 0); fill-opacity: 1; stroke: none; stroke-width: 1; stroke-miterlimit: 4; stroke-opacity: 1;" d="M 45.362191,82.932621 L 16.968546,111.08934 C 15.72807,112.39769 13.86457,111.85457 13.538256,110.50874 L 3.6092292,69.559193 C 3.2828862,68.213378 4.6906912,66.87706 6.3926712,67.471967 L 44.529184,79.497121 C 46.231161,80.092028 46.602679,81.62427 45.362191,82.932621 z" id="rect4743" sodipodi:nodetypes="ccssccc" inkscape:export-filename="/home/maidis/Desktop/rect4268.png" inkscape:export-xdpi="18.919405" inkscape:export-ydpi="18.919405"/>
  <path style="opacity: 0.789157; fill: url(#linearGradient4773) rgb(0, 0, 0); fill-opacity: 1; stroke: none; stroke-width: 1; stroke-miterlimit: 4; stroke-opacity: 1;" d="M 4.9367752,67.424101 C 3.9897662,67.715893 3.3760592,68.632444 3.6004132,69.557666 L 8.5176172,89.837293 C 9.9817092,89.781955 11.459513,89.587387 12.938083,89.228867 C 20.694367,87.348209 26.488021,81.606988 28.81889,74.543025 L 6.3824982,67.470782 C 5.8506422,67.284853 5.3672602,67.291446 4.9367752,67.424101 z" id="path4746" inkscape:export-filename="/home/maidis/Desktop/rect4268.png" inkscape:export-xdpi="18.919405" inkscape:export-ydpi="18.919405"/>
  <path sodipodi:type="arc" style="opacity: 0.789157; fill: url(#linearGradient4807) rgb(0, 0, 0); fill-opacity: 1; stroke: url(#linearGradient4809) rgb(0, 0, 0); stroke-width: 1; stroke-miterlimit: 4; stroke-dasharray: none; stroke-opacity: 1;" id="path4783" sodipodi:cx="43.65543" sodipodi:cy="257.87967" sodipodi:rx="4.5160789" sodipodi:ry="4.5160789" d="M 48.171509,257.87967 A 4.5160789,4.5160789 0 1 1 39.139351,257.87967 A 4.5160789,4.5160789 0 1 1 48.171509,257.87967 z" transform="matrix(0.505289, -0.122517, 0.122517, 0.505289, -44.2452, -51.4452)" inkscape:export-filename="/home/maidis/Desktop/rect4268.png" inkscape:export-xdpi="18.919405" inkscape:export-ydpi="18.919405"/>
  <path transform="matrix(0.505289, -0.122517, 0.122517, 0.505289, -36.8062, -20.7652)" d="M 48.171509,257.87967 A 4.5160789,4.5160789 0 1 1 39.139351,257.87967 A 4.5160789,4.5160789 0 1 1 48.171509,257.87967 z" sodipodi:ry="4.5160789" sodipodi:rx="4.5160789" sodipodi:cy="257.87967" sodipodi:cx="43.65543" id="path4811" style="opacity: 0.789157; fill: url(#linearGradient4813) rgb(0, 0, 0); fill-opacity: 1; stroke: url(#linearGradient4815) rgb(0, 0, 0); stroke-width: 1; stroke-miterlimit: 4; stroke-dasharray: none; stroke-opacity: 1;" sodipodi:type="arc" inkscape:export-filename="/home/maidis/Desktop/rect4268.png" inkscape:export-xdpi="18.919405" inkscape:export-ydpi="18.919405"/>
  <path style="opacity: 1; fill: rgb(18, 18, 18); fill-opacity: 1; stroke: none; stroke-opacity: 1;" d="M 13.970864,113.90666 L 237.8179,89.96668 L 231.40187,93.121887 L 20.695841,115.49544 L 13.970864,113.90666 z" id="rect4268" sodipodi:nodetypes="ccccc" inkscape:export-xdpi="18.919405" inkscape:export-ydpi="18.919405"/>
</svg>