<?xml version="1.0" encoding="UTF-8" standalone="no"?>
<!-- Created with Inkscape (http://www.inkscape.org/) -->
<svg xmlns:dc="http://purl.org/dc/elements/1.1/" xmlns:cc="http://creativecommons.org/ns#" xmlns:rdf="http://www.w3.org/1999/02/22-rdf-syntax-ns#" xmlns:svg="http://www.w3.org/2000/svg" xmlns="http://www.w3.org/2000/svg" xmlns:sodipodi="http://sodipodi.sourceforge.net/DTD/sodipodi-0.dtd" xmlns:inkscape="http://www.inkscape.org/namespaces/inkscape" width="248.80861" height="210.85152" id="svg4125" version="1.1" inkscape:version="0.48.1 " sodipodi:docname="New document 4">
  <defs id="defs4127">
    <filter inkscape:collect="always" id="filter4740" color-interpolation-filters="sRGB">
      <feGaussianBlur inkscape:collect="always" stdDeviation="12.357144" id="feGaussianBlur4742"/>
    </filter>
  </defs>
  <sodipodi:namedview id="base" pagecolor="#ffffff" bordercolor="#666666" borderopacity="1.0" inkscape:pageopacity="0.0" inkscape:pageshadow="2" inkscape:zoom="0.32992832" inkscape:cx="299.48332" inkscape:cy="-188.20813" inkscape:document-units="px" inkscape:current-layer="layer1" showgrid="false" fit-margin-top="0" fit-margin-left="0" fit-margin-right="0" fit-margin-bottom="0" inkscape:window-width="1280" inkscape:window-height="744" inkscape:window-x="-4" inkscape:window-y="-4" inkscape:window-maximized="1"/>
  <metadata id="metadata4130">
    <rdf:RDF>
      <cc:Work rdf:about="">
        <dc:format>image/svg+xml</dc:format>
        <dc:type rdf:resource="http://purl.org/dc/dcmitype/StillImage"/>
        <dc:title/>
      </cc:Work>
    </rdf:RDF>
  </metadata>
  <g inkscape:label="Layer 1" inkscape:groupmode="layer" id="layer1" transform="translate(-32.9284, -29.0168)">
    <g id="g4744" transform="matrix(0.415155, 0, 0, 0.415155, -3.39176, 0.612171)">
      <path style="fill:#000000;fill-opacity:1;stroke:none;filter:url(#filter4740)" d="m 117.14286,98.076469 540.00006,0 0,448.571441 -540.00006,0 z" id="rect4738" inkscape:connector-curvature="0"/>
      <path style="fill:#000000;fill-opacity:1;stroke:none" d="m 117.14286,98.076469 540.00006,0 0,448.571441 -540.00006,0 z" id="rect4133" inkscape:connector-curvature="0"/>
      <path style="fill:#ffffff;fill-opacity:1;stroke:none" d="m 194.28574,120.26291 385.71429,0 0,399.8258 -385.71429,0 z" id="rect4135" inkscape:connector-curvature="0"/>
      <g transform="translate(0, 6.38502)" id="g4707">
        <path style="fill:#ffffff;fill-opacity:1;stroke:none" d="m 589.71436,118.07652 54.28574,0 0,37.14287 -54.28574,0 z" id="rect4137" inkscape:connector-curvature="0"/>
        <path style="fill:#ffffff;fill-opacity:1;stroke:none" d="m 589.71436,177.12413 54.28574,0 0,37.14287 -54.28574,0 z" id="rect4139" inkscape:connector-curvature="0"/>
        <path style="fill:#ffffff;fill-opacity:1;stroke:none" d="m 589.71436,236.17174 54.28574,0 0,37.14287 -54.28574,0 z" id="rect4141" inkscape:connector-curvature="0"/>
        <path style="fill:#ffffff;fill-opacity:1;stroke:none" d="m 589.71436,295.21936 54.28574,0 0,37.14287 -54.28574,0 z" id="rect4143" inkscape:connector-curvature="0"/>
        <path style="fill:#ffffff;fill-opacity:1;stroke:none" d="m 589.71436,354.26697 54.28574,0 0,37.14287 -54.28574,0 z" id="rect4145" inkscape:connector-curvature="0"/>
        <path style="fill:#ffffff;fill-opacity:1;stroke:none" d="m 589.71436,413.31458 54.28574,0 0,37.14287 -54.28574,0 z" id="rect4147" inkscape:connector-curvature="0"/>
        <path style="fill:#ffffff;fill-opacity:1;stroke:none" d="m 589.71436,472.36218 54.28574,0 0,37.14287 -54.28574,0 z" id="rect4149" inkscape:connector-curvature="0"/>
      </g>
      <g transform="translate(0, -5.73882)" id="g4698">
        <path style="fill:#ffffff;fill-opacity:1;stroke:none" d="m 128.00006,130.20036 54.28574,0 0,37.14288 -54.28574,0 z" id="rect4162" inkscape:connector-curvature="0"/>
        <path style="fill:#ffffff;fill-opacity:1;stroke:none" d="m 128.00006,189.24797 54.28574,0 0,37.14287 -54.28574,0 z" id="rect4164" inkscape:connector-curvature="0"/>
        <path style="fill:#ffffff;fill-opacity:1;stroke:none" d="m 128.00006,248.29558 54.28574,0 0,37.14287 -54.28574,0 z" id="rect4166" inkscape:connector-curvature="0"/>
        <path style="fill:#ffffff;fill-opacity:1;stroke:none" d="m 128.00006,307.3432 54.28574,0 0,37.14287 -54.28574,0 z" id="rect4168" inkscape:connector-curvature="0"/>
        <path style="fill:#ffffff;fill-opacity:1;stroke:none" d="m 128.00006,366.39081 54.28574,0 0,37.14287 -54.28574,0 z" id="rect4170" inkscape:connector-curvature="0"/>
        <path style="fill:#ffffff;fill-opacity:1;stroke:none" d="m 128.00006,425.43842 54.28574,0 0,37.14287 -54.28574,0 z" id="rect4172" inkscape:connector-curvature="0"/>
        <path style="fill:#ffffff;fill-opacity:1;stroke:none" d="m 128.00006,484.48602 54.28574,0 0,37.14287 -54.28574,0 z" id="rect4174" inkscape:connector-curvature="0"/>
      </g>
      <path transform="matrix(1.75573, 0, 0, 1.75573, -293.008, -227.842)" style="fill:#4d4d4d;fill-opacity:1;stroke:none" d="m 487.98478,307.50342 c 0,54.82198 -44.442,99.26398 -99.26399,99.26398 -54.82198,0 -99.26398,-44.442 -99.26398,-99.26398 0,-54.82199 44.442,-99.26399 99.26398,-99.26399 54.82199,0 99.26399,44.442 99.26399,99.26399 z" id="path4720" inkscape:connector-curvature="0"/>
      <path transform="matrix(1.58015, 0, 0, 1.58015, -224.76, -173.852)" style="fill:#999999;fill-opacity:1;stroke:none" d="m 487.98478,307.50342 c 0,54.82198 -44.442,99.26398 -99.26399,99.26398 -54.82198,0 -99.26398,-44.442 -99.26398,-99.26398 0,-54.82199 44.442,-99.26399 99.26398,-99.26399 54.82199,0 99.26399,44.442 99.26399,99.26399 z" id="path4716" inkscape:connector-curvature="0"/>
      <path transform="matrix(1.34351, 0, 0, 1.34351, -132.772, -101.085)" style="fill:#ffffff;fill-opacity:1;stroke:none" d="m 487.98478,307.50342 c 0,54.82198 -44.442,99.26398 -99.26399,99.26398 -54.82198,0 -99.26398,-44.442 -99.26398,-99.26398 0,-54.82199 44.442,-99.26399 99.26398,-99.26399 54.82199,0 99.26399,44.442 99.26399,99.26399 z" id="path4718" inkscape:connector-curvature="0"/>
      <path transform="matrix(1.03053, 0, 0, 1.03053, -11.1116, -4.843)" style="fill:none;stroke:#000000" d="m 487.98478,307.50342 c 0,54.82198 -44.442,99.26398 -99.26399,99.26398 -54.82198,0 -99.26398,-44.442 -99.26398,-99.26398 0,-54.82199 44.442,-99.26399 99.26398,-99.26399 54.82199,0 99.26399,44.442 99.26399,99.26399 z" id="path4722" inkscape:connector-curvature="0"/>
      <g style="font-size:177.94242859px;font-style:normal;font-weight:normal;line-height:125%;letter-spacing:0px;word-spacing:0px;fill:#1a1a1a;fill-opacity:1;stroke:none;font-family:Sans" id="text4724">
        <path d="m 367.05653,350.48874 c 3.08442,2.13235 6.99972,3.19851 11.7459,3.19849 l 17.43692,0.3584 c 4.50715,2e-5 8.06585,-1.42273 10.67611,-4.26827 3.55864,-3.32336 5.33799,-8.54375 5.33806,-15.66119 -7e-5,-3.7976 -0.47433,-6.52545 -1.42276,-8.18357 -0.23538,-0.71314 -0.82729,-1.30686 -1.77573,-1.78117 -2.13601,-0.71313 -9.37288,-1.06973 -21.71063,-1.06978 -4.27193,5e-5 -7.11925,-2.25355 -8.54197,-6.76081 -0.94854,-4.50715 -0.1177,-8.06585 2.49254,-10.67611 1.42271,-1.89694 3.43919,-2.84545 6.04943,-2.84552 14.23476,7e-5 22.06353,-1.30502 23.48636,-3.9153 0.94843,-1.66161 1.42269,-4.38947 1.42276,-8.18357 -7e-5,-7.59519 -1.77942,-13.0527 -5.33806,-16.37257 -2.61026,-2.61009 -6.16896,-3.91519 -10.67611,-3.9153 l -0.35297,0 -17.08395,-0.3584 c -3.55874,10e-5 -6.76266,0.71329 -9.61176,2.13957 -1.42279,0.9486 -2.13416,1.30339 -2.13414,1.06435 -2e-5,3.79774 -1.65991,6.76453 -4.97965,8.90038 -3.3234,1.8971 -6.64498,1.8971 -9.96473,0 -3.55871,-2.13585 -5.33806,-5.10264 -5.33806,-8.90038 0.47425,-8.30112 4.98145,-14.58768 13.52163,-18.85968 5.45569,-2.84902 11.62458,-4.27358 18.50671,-4.27371 l 17.43692,0 c 9.72754,1.3e-4 17.91292,3.3217 24.55614,9.96474 7.59158,7.35645 11.3874,17.56011 11.38749,30.611 -9e-5,6.64324 -1.18572,12.33607 -3.55689,17.07852 -0.71328,0.94857 -1.89891,2.4908 -3.55689,4.62668 1.89692,2.13601 3.08255,3.56057 3.55689,4.2737 2.37117,4.50726 3.5568,10.31957 3.55689,17.43693 -9e-5,12.33783 -3.79591,22.30255 -11.38749,29.8942 -6.64322,6.64315 -14.8286,9.96473 -24.55614,9.96473 l -0.35297,0 -17.08395,0 c -6.64319,0 -12.81209,-1.42276 -18.50671,-4.26827 -9.01443,-4.27189 -13.52163,-10.44079 -13.52163,-18.50671 0,-4.03293 1.77935,-6.99972 5.33806,-8.90038 3.31975,-2.13591 6.64133,-2.13591 9.96473,0 3.31974,1.90066 4.97963,4.86745 4.97965,8.90038 z" style="font-variant:normal;font-stretch:normal;fill:#1a1a1a;font-family:Ubuntu-Title;-inkscape-font-specification:Ubuntu-Title" id="path4795" inkscape:connector-curvature="0"/>
      </g>
      <path inkscape:connector-curvature="0" id="path4728" d="m 388.77253,121.90877 c 1.412,380.28217 1.412,380.28217 1.412,380.28217" style="fill:none;stroke:#000000;stroke-width:1.10348904px;stroke-linecap:butt;stroke-linejoin:miter;stroke-opacity:1"/>
      <path style="fill:none;stroke:#000000;stroke-width:1.10348904px;stroke-linecap:butt;stroke-linejoin:miter;stroke-opacity:1" d="m 577.3464,312.75585 c -380.28217,-1.412 -380.28217,-1.412 -380.28217,-1.412" id="path4730" inkscape:connector-curvature="0"/>
    </g>
  </g>
</svg>