<?xml version="1.0" encoding="UTF-8" standalone="no"?>
<!-- Generator: Adobe Illustrator 15.0.0, SVG Export Plug-In . SVG Version: 6.00 Build 0)  -->

<svg
   xmlns:dc="http://purl.org/dc/elements/1.1/"
   xmlns:cc="http://creativecommons.org/ns#"
   xmlns:rdf="http://www.w3.org/1999/02/22-rdf-syntax-ns#"
   xmlns:svg="http://www.w3.org/2000/svg"
   xmlns="http://www.w3.org/2000/svg"
   xmlns:sodipodi="http://sodipodi.sourceforge.net/DTD/sodipodi-0.dtd"
   xmlns:inkscape="http://www.inkscape.org/namespaces/inkscape"
   version="1.1"
   x="0px"
   y="0px"
   width="30px"
   height="30px"
   viewBox="0 0 30 30"
   enable-background="new 0 0 30 30"
   xml:space="preserve"
   id="svg3004"
   inkscape:version="0.48.0 r9654"
   sodipodi:docname="filmstrip.svg"
   inkscape:export-filename="C:\cbro\src\semperXbmc\qml\semperXbmc\img\filmstrip.png"
   inkscape:export-xdpi="185.81"
   inkscape:export-ydpi="185.81"><metadata
   id="metadata3021"><rdf:RDF><cc:Work
       rdf:about=""><dc:format>image/svg+xml</dc:format><dc:type
         rdf:resource="http://purl.org/dc/dcmitype/StillImage" /><dc:title></dc:title></cc:Work></rdf:RDF></metadata><defs
   id="defs3019" /><sodipodi:namedview
   pagecolor="#ffffff"
   bordercolor="#666666"
   borderopacity="1"
   objecttolerance="10"
   gridtolerance="10"
   guidetolerance="10"
   inkscape:pageopacity="0"
   inkscape:pageshadow="2"
   inkscape:window-width="1280"
   inkscape:window-height="998"
   id="namedview3017"
   showgrid="false"
   inkscape:zoom="8.7666667"
   inkscape:cx="-2.6235741"
   inkscape:cy="15"
   inkscape:window-x="-4"
   inkscape:window-y="-4"
   inkscape:window-maximized="1"
   inkscape:current-layer="svg3004" />
<rect
   style="fill:#a569df;fill-opacity:0.94117647;stroke:#e0e0e0;stroke-linejoin:miter;stroke-opacity:1"
   id="rect3023"
   width="30"
   height="30"
   x="0"
   y="0"
   ry="5"
   inkscape:export-xdpi="185.81"
   inkscape:export-ydpi="185.81" /><g
   id="DO_NOT_EDIT_-_BOUNDING_BOX">
	<rect
   id="BOUNDING_BOX"
   fill="none"
   width="30"
   height="30" />
</g>
<g
   id="PLACE_YOUR_GRAPHIC_HERE">
	<path
   opacity="0.3"
   d="M27,5H3C2.449,5,2,5.451,2,6v16c0,0.551,0.449,1,1,1h24c0.549,0,1-0.449,1-1V6C28,5.451,27.549,5,27,5z    M21.5,6h2v2h-2V6z M18.5,6h2v2h-2V6z M15.5,6h2v2h-2V6z M9.5,6h2v2h-2V6z M6.5,6h2v2h-2V6z M3.5,6h2v2h-2V6z M3.5,9H14v10H3.5V9z    M5.5,22h-2v-2h2V22z M8.5,22h-2v-2h2V22z M11.5,22h-2v-2h2V22z M14.5,22h-2v-2h2V22z M14.5,8h-2V6h2V8z M17.5,22h-2v-2h2V22z    M20.5,22h-2v-2h2V22z M23.5,22h-2v-2h2V22z M26.5,22h-2v-2h2V22z M26.5,19H16V9h10.5V19z M26.5,8h-2V6h2V8z"
   id="path3009" />
	<path
   opacity="0.15"
   d="M3,25c-1.103,0-2-0.897-2-2V7c0-1.103,0.897-2,2-2h24c1.103,0,2,0.897,2,2v16c0,1.103-0.897,2-2,2H3z"
   id="path3011" />
	<path
   opacity="0.15"
   d="M27,6H3C2.449,6,2,6.451,2,7v16c0,0.551,0.449,1,1,1h24c0.549,0,1-0.449,1-1V7C28,6.451,27.549,6,27,6z    M21.5,7h2v2h-2V7z M18.5,7h2v2h-2V7z M15.5,7h2v2h-2V7z M9.5,7h2v2h-2V7z M6.5,7h2v2h-2V7z M3.5,7h2v2h-2V7z M3.5,10H14v10H3.5V10   z M5.5,23h-2v-2h2V23z M8.5,23h-2v-2h2V23z M11.5,23h-2v-2h2V23z M14.5,23h-2v-2h2V23z M14.5,9h-2V7h2V9z M17.5,23h-2v-2h2V23z    M20.5,23h-2v-2h2V23z M23.5,23h-2v-2h2V23z M26.5,23h-2v-2h2V23z M26.5,20H16V10h10.5V20z M26.5,9h-2V7h2V9z"
   id="path3013" />
	<path
   fill="#FFFFFF"
   d="M27,6H3C2.449,6,2,6.451,2,7v16c0,0.551,0.449,1,1,1h24c0.549,0,1-0.449,1-1V7C28,6.451,27.549,6,27,6z    M21.5,7h2v2h-2V7z M18.5,7h2v2h-2V7z M15.5,7h2v2h-2V7z M9.5,7h2v2h-2V7z M6.5,7h2v2h-2V7z M3.5,7h2v2h-2V7z M3.5,10H14v10H3.5V10   z M5.5,23h-2v-2h2V23z M8.5,23h-2v-2h2V23z M11.5,23h-2v-2h2V23z M14.5,23h-2v-2h2V23z M14.5,9h-2V7h2V9z M17.5,23h-2v-2h2V23z    M20.5,23h-2v-2h2V23z M23.5,23h-2v-2h2V23z M26.5,23h-2v-2h2V23z M26.5,20H16V10h10.5V20z M26.5,9h-2V7h2V9z"
   id="path3015" />
</g>
</svg>