<?xml version="1.0" encoding="UTF-8" standalone="no"?>
<!-- Generator: Adobe Illustrator 15.0.0, SVG Export Plug-In . SVG Version: 6.00 Build 0)  -->

<svg
   xmlns:dc="http://purl.org/dc/elements/1.1/"
   xmlns:cc="http://creativecommons.org/ns#"
   xmlns:rdf="http://www.w3.org/1999/02/22-rdf-syntax-ns#"
   xmlns:svg="http://www.w3.org/2000/svg"
   xmlns="http://www.w3.org/2000/svg"
   xmlns:sodipodi="http://sodipodi.sourceforge.net/DTD/sodipodi-0.dtd"
   xmlns:inkscape="http://www.inkscape.org/namespaces/inkscape"
   version="1.1"
   x="0px"
   y="0px"
   width="30px"
   height="30px"
   viewBox="0 0 30 30"
   enable-background="new 0 0 30 30"
   xml:space="preserve"
   id="svg4362"
   inkscape:version="0.48.0 r9654"
   sodipodi:docname="musicBg.svg"
   inkscape:export-filename="C:\cbro\src\semperXbmc\qml\semperXbmc\img\musicBg.png"
   inkscape:export-xdpi="185"
   inkscape:export-ydpi="185"><metadata
   id="metadata4379"><rdf:RDF><cc:Work
       rdf:about=""><dc:format>image/svg+xml</dc:format><dc:type
         rdf:resource="http://purl.org/dc/dcmitype/StillImage" /><dc:title></dc:title></cc:Work></rdf:RDF></metadata><defs
   id="defs4377" /><sodipodi:namedview
   pagecolor="#ffffff"
   bordercolor="#666666"
   borderopacity="1"
   objecttolerance="10"
   gridtolerance="10"
   guidetolerance="10"
   inkscape:pageopacity="0"
   inkscape:pageshadow="2"
   inkscape:window-width="1280"
   inkscape:window-height="998"
   id="namedview4375"
   showgrid="false"
   inkscape:zoom="8.7666667"
   inkscape:cx="-2.6235741"
   inkscape:cy="15"
   inkscape:window-x="-4"
   inkscape:window-y="-4"
   inkscape:window-maximized="1"
   inkscape:current-layer="svg4362" />
<rect
   style="fill:#c3e9a7;fill-opacity:0.94117647;stroke:#e0e0e0;stroke-linejoin:miter;stroke-opacity:1"
   id="rect3023"
   width="30"
   height="30"
   x="0"
   y="0"
   ry="5"
   inkscape:export-xdpi="185.81"
   inkscape:export-ydpi="185.81" /><g
   id="DO_NOT_EDIT_-_BOUNDING_BOX">
	<rect
   id="BOUNDING_BOX"
   fill="none"
   width="30"
   height="30" />
</g>
<g
   id="PLACE_YOUR_GRAPHIC_HERE"
   transform="matrix(0.86948702,0,0,0.90005017,2.393326,1.3985451)">
	<path
   d="M 24.033,1.256 11.967,4.445 C 11.435,4.586 11,5.15 11,5.701 v 14.458 c -1.125,-0.302 -2.567,-0.157 -3.949,0.51 -2.352,1.138 -3.61,3.326 -2.81,4.89 0.799,1.563 3.354,1.908 5.708,0.771 1.87,-0.905 3.05,-2.473 3.05,-3.864 V 10 l 10,-2.645 V 18.16 c -1.125,-0.301 -2.566,-0.158 -3.949,0.51 -2.352,1.137 -3.61,3.326 -2.809,4.889 0.799,1.563 3.354,1.91 5.707,0.771 1.875,-0.906 3.055,-2.477 3.051,-3.869 V 2 C 25,1.45 24.564,1.115 24.033,1.256 z"
   id="path4367"
   inkscape:connector-curvature="0"
   style="opacity:0.3" />
	<path
   d="M 7.168,29 C 5.413,29 3.986,28.258 3.35,27.014 2.936,26.205 2.886,25.272 3.206,24.316 c 0.476,-1.418 1.75,-2.744 3.408,-3.547 1.03,-0.497 2.131,-0.76 3.186,-0.76 0.067,0 0.133,0.001 0.199,0.003 V 6.701 c 0,-1.009 0.736,-1.965 1.711,-2.223 L 23.776,1.289 C 23.94,1.246 24.106,1.224 24.27,1.224 25.257,1.224 26,1.987 26,3 v 18.461 c 0.005,1.832 -1.414,3.705 -3.615,4.77 -1.042,0.504 -2.153,0.771 -3.215,0.771 l 0,0 c -1.755,0 -3.183,-0.743 -3.818,-1.987 -0.415,-0.809 -0.464,-1.741 -0.144,-2.698 0.476,-1.418 1.75,-2.744 3.408,-3.546 1.029,-0.497 2.13,-0.76 3.185,-0.76 0.067,0 0.134,0.002 0.2,0.004 V 9.654 l -8,2.116 v 11.696 c 0,1.831 -1.419,3.701 -3.615,4.765 C 9.342,28.733 8.229,29 7.168,29 z"
   id="path4369"
   inkscape:connector-curvature="0"
   style="opacity:0.15" />
	<path
   d="M 24.033,2.256 11.967,5.445 C 11.435,5.586 11,6.15 11,6.701 v 14.458 c -1.125,-0.302 -2.567,-0.157 -3.949,0.51 -2.352,1.138 -3.61,3.326 -2.81,4.89 0.799,1.563 3.354,1.908 5.708,0.771 1.87,-0.905 3.05,-2.473 3.05,-3.864 V 11 l 10,-2.645 V 19.16 c -1.125,-0.301 -2.566,-0.158 -3.949,0.51 -2.352,1.137 -3.61,3.326 -2.809,4.889 0.799,1.563 3.354,1.91 5.707,0.771 1.875,-0.906 3.055,-2.477 3.051,-3.869 V 3 C 25,2.45 24.564,2.115 24.033,2.256 z"
   id="path4371"
   inkscape:connector-curvature="0"
   style="opacity:0.15" />
	<path
   d="M 24.033,2.256 11.967,5.445 C 11.435,5.586 11,6.15 11,6.701 v 14.458 c -1.125,-0.302 -2.567,-0.157 -3.949,0.51 -2.352,1.138 -3.61,3.326 -2.81,4.89 0.799,1.563 3.354,1.908 5.708,0.771 1.87,-0.905 3.05,-2.473 3.05,-3.864 V 11 l 10,-2.645 V 19.16 c -1.125,-0.301 -2.566,-0.158 -3.949,0.51 -2.352,1.137 -3.61,3.326 -2.809,4.889 0.799,1.563 3.354,1.91 5.707,0.771 1.875,-0.906 3.055,-2.477 3.051,-3.869 V 3 C 25,2.45 24.564,2.115 24.033,2.256 z"
   id="path4373"
   inkscape:connector-curvature="0"
   style="fill:#ffffff" />
</g>
</svg>