<?xml version="1.0" encoding="UTF-8" standalone="no"?>
<!-- Generator: Adobe Illustrator 15.0.0, SVG Export Plug-In . SVG Version: 6.00 Build 0)  -->

<svg
   xmlns:dc="http://purl.org/dc/elements/1.1/"
   xmlns:cc="http://creativecommons.org/ns#"
   xmlns:rdf="http://www.w3.org/1999/02/22-rdf-syntax-ns#"
   xmlns:svg="http://www.w3.org/2000/svg"
   xmlns="http://www.w3.org/2000/svg"
   xmlns:sodipodi="http://sodipodi.sourceforge.net/DTD/sodipodi-0.dtd"
   xmlns:inkscape="http://www.inkscape.org/namespaces/inkscape"
   version="1.1"
   x="0px"
   y="0px"
   width="30px"
   height="30px"
   viewBox="0 0 30 30"
   enable-background="new 0 0 30 30"
   xml:space="preserve"
   id="svg4926"
   inkscape:version="0.48.0 r9654"
   sodipodi:docname="playlist.svg"
   inkscape:export-filename="C:\cbro\src\semperXbmc\qml\semperXbmc\img\playlist.png"
   inkscape:export-xdpi="185"
   inkscape:export-ydpi="185"><metadata
   id="metadata4943"><rdf:RDF><cc:Work
       rdf:about=""><dc:format>image/svg+xml</dc:format><dc:type
         rdf:resource="http://purl.org/dc/dcmitype/StillImage" /><dc:title></dc:title></cc:Work></rdf:RDF></metadata><defs
   id="defs4941" /><sodipodi:namedview
   pagecolor="#ffffff"
   bordercolor="#666666"
   borderopacity="1"
   objecttolerance="10"
   gridtolerance="10"
   guidetolerance="10"
   inkscape:pageopacity="0"
   inkscape:pageshadow="2"
   inkscape:window-width="1280"
   inkscape:window-height="998"
   id="namedview4939"
   showgrid="false"
   inkscape:zoom="8.7666667"
   inkscape:cx="-2.6235741"
   inkscape:cy="15"
   inkscape:window-x="-4"
   inkscape:window-y="-4"
   inkscape:window-maximized="1"
   inkscape:current-layer="svg4926" />
<rect
   style="fill:#fac6dc;fill-opacity:0.94117647;stroke:#e0e0e0;stroke-linejoin:miter;stroke-opacity:1"
   id="rect3023"
   width="30"
   height="30"
   x="0"
   y="0"
   ry="5"
   inkscape:export-xdpi="185.81"
   inkscape:export-ydpi="185.81" /><g
   id="DO_NOT_EDIT_-_BOUNDING_BOX">
	<rect
   id="BOUNDING_BOX"
   fill="none"
   width="30"
   height="30" />
</g>
<g
   id="PLACE_YOUR_GRAPHIC_HERE"
   transform="matrix(0.89031339,0,0,0.86206897,0.71937322,1.637931)">
	<path
   d="m 22.123,22.637 c 0.227,0 0.453,0.015 0.678,0.044 v -7.452 c 0,-1.096 0.832,-1.669 1.654,-1.669 0.035,0 0.119,0.004 0.152,0.007 0.129,0.019 0.262,0.039 0.393,0.059 V 2 C 25,1.449 24.551,1 24,1 H 4 C 3.45,1 3,1.449 3,2 v 24 c 0,0.55 0.45,1 1,1 H 18.293 C 18.107,26.636 18,26.239 18,25.818 c 0,-1.784 1.811,-3.181 4.123,-3.181 z M 11,6.971 h 10.096 c 0.553,0 1,0.447 1,1 0,0.553 -0.447,1 -1,1 H 11 c -0.553,0 -1,-0.447 -1,-1 0,-0.553 0.447,-1 1,-1 z m 0,4 h 10.096 c 0.553,0 1,0.447 1,1 0,0.553 -0.447,1 -1,1 H 11 c -0.553,0 -1,-0.447 -1,-1 0,-0.553 0.447,-1 1,-1 z m 0,4 h 10.096 c 0.553,0 1,0.447 1,1 0,0.553 -0.447,1 -1,1 H 11 c -0.553,0 -1,-0.447 -1,-1 0,-0.553 0.447,-1 1,-1 z M 7,21 c -0.553,0 -1,-0.447 -1,-1 0,-0.553 0.447,-1 1,-1 0.553,0 1,0.447 1,1 0,0.553 -0.447,1 -1,1 z m 0,-4 c -0.553,0 -1,-0.447 -1,-1 0,-0.553 0.447,-1 1,-1 0.553,0 1,0.447 1,1 0,0.553 -0.447,1 -1,1 z m 0,-4 c -0.553,0 -1,-0.447 -1,-1 0,-0.553 0.447,-1 1,-1 0.553,0 1,0.447 1,1 0,0.553 -0.447,1 -1,1 z M 7,9 C 6.447,9 6,8.553 6,8 6,7.447 6.447,7 7,7 7.553,7 8,7.447 8,8 8,8.553 7.553,9 7,9 z m 4,11.971 c -0.553,0 -1,-0.447 -1,-1 0,-0.553 0.447,-1 1,-1 h 10.096 c 0.553,0 1,0.447 1,1 0,0.553 -0.447,1 -1,1 H 11 z m 13.506,-6.409 c 0,0 -0.705,-0.072 -0.705,0.667 V 23.99 C 23.313,23.77 22.74,23.637 22.123,23.637 20.396,23.637 19,24.613 19,25.819 19,27.023 20.396,28 22.123,28 c 1.723,0 3.117,-0.977 3.117,-2.182 v -7.561 c 1.436,0.219 2.75,0.519 3.84,0.822 v -3.654 c -1.658,-0.429 -3.307,-0.682 -4.574,-0.863 z"
   id="path4931"
   inkscape:connector-curvature="0"
   style="opacity:0.3" />
	<path
   d="M 29.331,15.458 C 28.19,15.163 27.073,14.95 25.988,14.775 25.996,14.726 26,14.675 26,14.625 V 3 C 26,1.897 25.103,1 24,1 H 4 C 2.897,1 2,1.897 2,3 v 24 c 0,1.103 0.897,2 2,2 h 15.13 c 0.747,0.611 1.794,1 2.993,1 2.309,0 4.117,-1.397 4.117,-3.182 v -6.375 c 0.873,0.167 1.745,0.37 2.571,0.6 0.089,0.025 0.179,0.037 0.269,0.037 0.216,0 0.429,-0.07 0.604,-0.204 0.249,-0.188 0.396,-0.483 0.396,-0.796 v -3.654 c 0,-0.456 -0.308,-0.854 -0.749,-0.968 z"
   id="path4933"
   inkscape:connector-curvature="0"
   style="opacity:0.15" />
	<path
   d="m 22.123,23.637 c 0.227,0 0.453,0.015 0.678,0.044 v -7.452 c 0,-1.096 0.832,-1.669 1.654,-1.669 0.035,0 0.119,0.004 0.152,0.007 0.129,0.019 0.262,0.039 0.393,0.059 V 3 C 25,2.449 24.551,2 24,2 H 4 C 3.45,2 3,2.449 3,3 v 24 c 0,0.55 0.45,1 1,1 H 18.293 C 18.107,27.636 18,27.239 18,26.818 c 0,-1.784 1.811,-3.181 4.123,-3.181 z M 11,7.971 h 10.096 c 0.553,0 1,0.447 1,1 0,0.553 -0.447,1 -1,1 H 11 c -0.553,0 -1,-0.447 -1,-1 0,-0.553 0.447,-1 1,-1 z m 0,4 h 10.096 c 0.553,0 1,0.447 1,1 0,0.553 -0.447,1 -1,1 H 11 c -0.553,0 -1,-0.447 -1,-1 0,-0.553 0.447,-1 1,-1 z m 0,4 h 10.096 c 0.553,0 1,0.447 1,1 0,0.553 -0.447,1 -1,1 H 11 c -0.553,0 -1,-0.447 -1,-1 0,-0.553 0.447,-1 1,-1 z M 7,22 c -0.553,0 -1,-0.447 -1,-1 0,-0.553 0.447,-1 1,-1 0.553,0 1,0.447 1,1 0,0.553 -0.447,1 -1,1 z m 0,-4 c -0.553,0 -1,-0.447 -1,-1 0,-0.553 0.447,-1 1,-1 0.553,0 1,0.447 1,1 0,0.553 -0.447,1 -1,1 z m 0,-4 c -0.553,0 -1,-0.447 -1,-1 0,-0.553 0.447,-1 1,-1 0.553,0 1,0.447 1,1 0,0.553 -0.447,1 -1,1 z M 7,10 C 6.447,10 6,9.553 6,9 6,8.447 6.447,8 7,8 7.553,8 8,8.447 8,9 8,9.553 7.553,10 7,10 z m 4,11.971 c -0.553,0 -1,-0.447 -1,-1 0,-0.553 0.447,-1 1,-1 h 10.096 c 0.553,0 1,0.447 1,1 0,0.553 -0.447,1 -1,1 H 11 z m 13.506,-6.409 c 0,0 -0.705,-0.072 -0.705,0.667 V 24.99 C 23.313,24.77 22.74,24.637 22.123,24.637 20.396,24.637 19,25.613 19,26.819 19,28.023 20.396,29 22.123,29 c 1.723,0 3.117,-0.977 3.117,-2.182 v -7.561 c 1.436,0.219 2.75,0.519 3.84,0.822 v -3.654 c -1.658,-0.429 -3.307,-0.682 -4.574,-0.863 z"
   id="path4935"
   inkscape:connector-curvature="0"
   style="opacity:0.15" />
	<path
   d="m 22.123,23.637 c 0.227,0 0.453,0.015 0.678,0.044 v -7.452 c 0,-1.096 0.832,-1.669 1.654,-1.669 0.035,0 0.119,0.004 0.152,0.007 0.129,0.019 0.262,0.039 0.393,0.059 V 3 C 25,2.449 24.551,2 24,2 H 4 C 3.45,2 3,2.449 3,3 v 24 c 0,0.55 0.45,1 1,1 H 18.293 C 18.107,27.636 18,27.239 18,26.818 c 0,-1.784 1.811,-3.181 4.123,-3.181 z M 11,7.971 h 10.096 c 0.553,0 1,0.447 1,1 0,0.553 -0.447,1 -1,1 H 11 c -0.553,0 -1,-0.447 -1,-1 0,-0.553 0.447,-1 1,-1 z m 0,4 h 10.096 c 0.553,0 1,0.447 1,1 0,0.553 -0.447,1 -1,1 H 11 c -0.553,0 -1,-0.447 -1,-1 0,-0.553 0.447,-1 1,-1 z m 0,4 h 10.096 c 0.553,0 1,0.447 1,1 0,0.553 -0.447,1 -1,1 H 11 c -0.553,0 -1,-0.447 -1,-1 0,-0.553 0.447,-1 1,-1 z M 7,22 c -0.553,0 -1,-0.447 -1,-1 0,-0.553 0.447,-1 1,-1 0.553,0 1,0.447 1,1 0,0.553 -0.447,1 -1,1 z m 0,-4 c -0.553,0 -1,-0.447 -1,-1 0,-0.553 0.447,-1 1,-1 0.553,0 1,0.447 1,1 0,0.553 -0.447,1 -1,1 z m 0,-4 c -0.553,0 -1,-0.447 -1,-1 0,-0.553 0.447,-1 1,-1 0.553,0 1,0.447 1,1 0,0.553 -0.447,1 -1,1 z M 7,10 C 6.447,10 6,9.553 6,9 6,8.447 6.447,8 7,8 7.553,8 8,8.447 8,9 8,9.553 7.553,10 7,10 z m 4,11.971 c -0.553,0 -1,-0.447 -1,-1 0,-0.553 0.447,-1 1,-1 h 10.096 c 0.553,0 1,0.447 1,1 0,0.553 -0.447,1 -1,1 H 11 z m 13.506,-6.409 c 0,0 -0.705,-0.072 -0.705,0.667 V 24.99 C 23.313,24.77 22.74,24.637 22.123,24.637 20.396,24.637 19,25.613 19,26.819 19,28.023 20.396,29 22.123,29 c 1.723,0 3.117,-0.977 3.117,-2.182 v -7.561 c 1.436,0.219 2.75,0.519 3.84,0.822 v -3.654 c -1.658,-0.429 -3.307,-0.682 -4.574,-0.863 z"
   id="path4937"
   inkscape:connector-curvature="0"
   style="fill:#ffffff" />
</g>
</svg>