<?xml version="1.0" encoding="UTF-8" standalone="no"?>
<!-- Created with Inkscape (http://www.inkscape.org/) -->

<svg
   xmlns:dc="http://purl.org/dc/elements/1.1/"
   xmlns:cc="http://creativecommons.org/ns#"
   xmlns:rdf="http://www.w3.org/1999/02/22-rdf-syntax-ns#"
   xmlns:svg="http://www.w3.org/2000/svg"
   xmlns="http://www.w3.org/2000/svg"
   xmlns:xlink="http://www.w3.org/1999/xlink"
   xmlns:sodipodi="http://sodipodi.sourceforge.net/DTD/sodipodi-0.dtd"
   xmlns:inkscape="http://www.inkscape.org/namespaces/inkscape"
   version="1.1"
   width="320"
   height="324.03186"
   viewBox="0 0 320 324.03186"
   id="svg3157"
   xml:space="preserve"
   inkscape:version="0.48.0 r9654"
   sodipodi:docname="semperXbmc_Splash.svg"><sodipodi:namedview
   pagecolor="#ffffff"
   bordercolor="#666666"
   borderopacity="1"
   objecttolerance="10"
   gridtolerance="10"
   guidetolerance="10"
   inkscape:pageopacity="0"
   inkscape:pageshadow="2"
   inkscape:window-width="1360"
   inkscape:window-height="744"
   id="namedview49"
   showgrid="false"
   fit-margin-top="0"
   fit-margin-left="0"
   fit-margin-right="0"
   fit-margin-bottom="0"
   inkscape:zoom="1.0422459"
   inkscape:cx="-27.661919"
   inkscape:cy="177.08074"
   inkscape:window-x="-8"
   inkscape:window-y="-8"
   inkscape:window-maximized="1"
   inkscape:current-layer="svg3157" /><metadata
   id="metadata3223"><rdf:RDF><cc:Work
       rdf:about=""><dc:format>image/svg+xml</dc:format><dc:type
         rdf:resource="http://purl.org/dc/dcmitype/StillImage" /><dc:title /></cc:Work></rdf:RDF></metadata>
<defs
   id="defs3159">
<linearGradient
   x1="47.9995"
   y1="0"
   x2="47.9995"
   y2="144.6673"
   id="HIGHLIGHT_RIM_2_-6"
   gradientUnits="userSpaceOnUse"><stop
     id="stop3181-3"
     style="stop-color:#ffffff;stop-opacity:1"
     offset="0" /><stop
     id="stop3183-6"
     style="stop-color:#000000;stop-opacity:1"
     offset="1" /></linearGradient><linearGradient
   inkscape:collect="always"
   xlink:href="#HIGHLIGHT_RIM_2_-6"
   id="linearGradient3121"
   gradientUnits="userSpaceOnUse"
   gradientTransform="matrix(2.4992815,0,0,2.4992815,-19.994252,-19.916149)"
   x1="47.9995"
   y1="0"
   x2="47.9995"
   y2="144.6673" /><linearGradient
   inkscape:collect="always"
   xlink:href="#HIGHLIGHT_RIM_2_-6"
   id="linearGradient3176"
   gradientUnits="userSpaceOnUse"
   gradientTransform="matrix(2.4992815,0,0,2.4992815,-19.994252,-19.916149)"
   x1="47.9995"
   y1="0"
   x2="47.9995"
   y2="144.6673" /></defs>


















<linearGradient
   x1="47.9995"
   y1="0"
   x2="47.9995"
   y2="144.6673"
   id="HIGHLIGHT_RIM_2_"
   gradientUnits="userSpaceOnUse">
	<stop
   id="stop3181"
   style="stop-color:#ffffff;stop-opacity:1"
   offset="0" />
	<stop
   id="stop3183"
   style="stop-color:#000000;stop-opacity:1"
   offset="1" />
</linearGradient>

<path
   d="m 159.9885,201.51055 c -29.635,0 -40,-10.367 -40,-40 0,-29.634 10.365,-40 40,-40 29.637,0 40,10.365 40,40 0,29.632 -10.363,40 -40,40 z"
   id="SQUIRCLE_1_"
   style="fill:#ffffff;fill-opacity:0.05;display:none"
   inkscape:connector-curvature="0" />

















<g
   id="g3139"
   transform="scale(1.6,1.6)"><rect
     width="96"
     height="96"
     x="51.988499"
     y="52.775578"
     id="BOUNDING_BOX_1_"
     style="fill:none" /><path
     d="m 200,102.54864 c 0,74.06122 -25.90255,99.97127 -99.97126,99.97127 -74.066204,0 -99.971257,-25.91005 -99.971257,-99.97127 0,-74.063704 25.907553,-99.971256 99.971257,-99.971256 74.06871,0 99.97126,25.905053 99.97126,99.971256 z"
     id="SHADOW_1_"
     style="opacity:0.4"
     inkscape:connector-curvature="0" /><path
     d="M 99.97126,0 C 25.905053,0 0,25.907552 0,99.97126 c 0,74.06121 25.905053,99.97126 99.97126,99.97126 74.07121,0 99.97126,-25.91255 99.97126,-99.97126 C 199.94252,25.905053 174.04247,0 99.97126,0 z"
     id="rect3163"
     style="fill:#334266"
     inkscape:connector-curvature="0" /><path
     d="m 44.064832,86.172803 v -5.161017 h 0.664809 l 2.12189,3.024131 2.114392,-3.024131 h 0.669808 v 5.161017 h -0.80227 V 82.45887 L 46.85403,85.333044 44.874599,82.45887 v 3.713933 h -0.809767 z"
     id="path24_1_"
     style="fill:#ffffff"
     inkscape:connector-curvature="0" /><path
     d="m 55.918924,86.172803 v -5.161017 h 4.843608 v 0.757283 h -4.03384 v 1.292128 h 2.649238 v 0.734789 h -2.649238 v 1.637029 h 4.256276 v 0.742287 h -5.066044 z"
     id="path26_1_"
     style="fill:#ffffff"
     inkscape:connector-curvature="0" /><path
     d="m 66.663335,81.021783 v 5.15102 h 2.29684 c 0.859753,0 1.534559,-0.229934 2.039414,-0.692301 0.504855,-0.462367 0.772278,-1.087188 0.772278,-1.866964 0,-0.767279 -0.257426,-1.394599 -0.772278,-1.879459 -0.519851,-0.477363 -1.197156,-0.709796 -2.039414,-0.709796 h -2.29684 z m 0.812267,0.73229 h 1.484573 c 0.584832,0 1.062195,0.169951 1.422091,0.514852 0.364895,0.339902 0.559839,0.779776 0.559839,1.327118 0,0.562339 -0.184946,1.014709 -0.537345,1.344614 -0.3474,0.332404 -0.832261,0.492358 -1.444585,0.492358 h -1.484573 v -3.678942 z"
     id="path28_1_"
     style="fill:#ffffff"
     inkscape:connector-curvature="0" /><path
     d="M 77.5702,86.172803 V 80.99929 h 0.819764 v 5.173513 H 77.5702 z"
     id="path30_1_"
     style="fill:#ffffff"
     inkscape:connector-curvature="0" /><path
     d="m 86.325183,81.021783 -2.634243,5.15102 h 0.849756 l 0.674806,-1.307125 h 2.729215 l 0.677306,1.307125 h 0.849755 l -2.634242,-5.15102 h -0.512353 z m 0.259925,1.18466 1.004711,1.959437 h -2.021918 l 1.017207,-1.959437 z"
     id="path32_1_"
     style="fill:#ffffff"
     inkscape:connector-curvature="0" /><path
     d="m 104.35,84.910666 c -0.29242,0.464866 -0.6773,0.814765 -1.16216,1.054696 -0.46987,0.249928 -1.01721,0.372393 -1.62454,0.372393 -0.90724,0 -1.654522,-0.259925 -2.239354,-0.774777 -0.582332,-0.514852 -0.879747,-1.167164 -0.879747,-1.956937 0,-0.784775 0.294915,-1.444585 0.879747,-1.961936 0.584832,-0.517352 1.332114,-0.772278 2.239354,-0.772278 0.56734,0 1.07719,0.107469 1.53456,0.314909 0.46237,0.20994 0.82976,0.509854 1.10968,0.894743 l -0.63981,0.447371 c -0.21244,-0.292416 -0.48986,-0.52235 -0.84476,-0.677305 -0.3474,-0.157455 -0.72979,-0.239931 -1.15967,-0.239931 -0.66731,0 -1.20965,0.189945 -1.642026,0.564838 -0.432375,0.377391 -0.649813,0.852255 -0.649813,1.419591 0,0.567337 0.217438,1.042201 0.652313,1.417093 0.434876,0.374892 0.984716,0.567337 1.639526,0.567337 0.46237,0 0.85975,-0.09247 1.21965,-0.269922 0.3449,-0.184947 0.65481,-0.467366 0.91724,-0.847257 l 0.64981,0.447372 z"
     id="path34_1_"
     style="fill:#ffffff"
     inkscape:connector-curvature="0" /><path
     d="m 110.22331,86.172803 v -5.161017 h 4.84361 v 0.757283 h -4.03384 v 1.292128 h 2.65174 v 0.734789 h -2.65174 v 1.637029 h 4.26127 v 0.742287 h -5.07104 l 0,-0.0025 z"
     id="path36_1_"
     style="fill:#ffffff"
     inkscape:connector-curvature="0" /><path
     d="m 120.96523,86.172803 v -5.161017 h 0.42487 l 3.28156,3.628957 v -3.628957 h 0.79477 v 5.161017 h -0.42238 L 121.765,82.556342 v 3.616461 h -0.79978 l 0,0 z"
     id="path38_1_"
     style="fill:#ffffff"
     inkscape:connector-curvature="0" /><path
     d="m 141.27688,86.172803 v -5.161017 h 4.83861 v 0.757283 h -4.03134 v 1.292128 h 2.64674 v 0.734789 h -2.64674 v 1.637029 h 4.25628 v 0.742287 h -5.06355 z"
     id="path42_1_"
     style="fill:#ffffff"
     inkscape:connector-curvature="0" /><path
     d="m 152.0213,81.021783 v 5.15102 h 0.80976 v -2.259351 h 2.25685 l 1.44709,2.259351 h 0.88974 l -1.44458,-2.259351 c 0.37239,-0.05748 0.6898,-0.227434 0.92723,-0.494858 0.23743,-0.264923 0.3549,-0.582332 0.3549,-0.952226 0,-0.44987 -0.15995,-0.817265 -0.45237,-1.069692 -0.29742,-0.254927 -0.7023,-0.372393 -1.22715,-0.372393 h -3.56147 z m 0.80976,0.754784 h 2.75421 c 0.27242,0 0.48736,0.05248 0.63232,0.179948 0.14496,0.114967 0.22244,0.287417 0.22244,0.507354 0,0.229934 -0.0775,0.394886 -0.22244,0.514852 -0.14496,0.122465 -0.3599,0.177449 -0.63232,0.177449 h -2.75421 v -1.379603 z"
     id="path44_1_"
     style="fill:#ffffff"
     inkscape:connector-curvature="0" /><path
     d="m 157.51472,97.649503 c 1.62453,-0.752283 3.24656,-2.324331 4.79112,-4.538695 -32.3357,0.509854 -81.331619,0.509854 -124.571688,0.434875 0.122465,0.247429 0.252428,0.497357 0.38239,0.747285 2.981643,-0.0075 5.928296,-0.0075 8.819965,-0.0075 45.199505,-0.03749 86.255203,-0.03749 110.578213,3.364033"
     id="path22_1_"
     style="fill:#d9822b"
     inkscape:connector-curvature="0" /><path
     d="M 132.96927,86.172803 V 81.72908 h -2.17437 v -0.717294 h 5.16101 v 0.717294 h -2.17687 v 4.443723 h -0.80977 z"
     id="path40_1_"
     style="fill:#ffffff"
     inkscape:connector-curvature="0" /><path
     d="m 76.625472,45.482001 -0.932232,6.413156 h -5.623384 c -3.414018,0 -6.57311,1.209652 -9.482274,3.626457 -0.762281,0.632319 -1.449583,1.292129 -2.059408,1.996926 -0.339902,-0.704797 -0.762281,-1.362108 -1.28713,-1.996926 -1.984429,-2.414306 -4.703648,-3.626457 -8.117666,-3.626457 h -7.27041 c -0.257426,1.35461 -0.0025,2.509279 0.774777,3.466503 0.774778,0.957225 1.829474,1.444585 3.186584,1.444585 h 2.376817 c 2.034415,0 3.623958,0.72979 4.771128,2.196868 1.147171,1.472077 1.534559,3.234071 1.147171,5.265987 -0.382391,2.036914 -1.424591,3.778913 -3.124102,5.225997 -1.712008,1.452083 -3.591468,2.179374 -5.628382,2.179374 h -2.371818 c -1.362109,0 -2.604252,0.467365 -3.743924,1.427089 -1.139673,0.954726 -1.841971,2.101896 -2.096897,3.464005 h 7.287905 c 3.416517,0 6.560613,-1.192158 9.464779,-3.586469 0.76228,-0.629819 1.449583,-1.297127 2.054409,-1.999426 0.342402,0.704798 0.782275,1.369607 1.307124,1.999426 1.989428,2.394311 4.683654,3.586469 8.097672,3.586469 h 7.287905 c 0.259925,-1.362109 0.0025,-2.509279 -0.772278,-3.464005 -0.769779,-0.959724 -1.849468,-1.427089 -3.206578,-1.427089 h -2.354323 c -2.039414,0 -3.638954,-0.727291 -4.793622,-2.179374 -1.152169,-1.449583 -1.539558,-3.189083 -1.14717,-5.225997 0.387388,-2.031916 1.437086,-3.79391 3.149094,-5.265987 1.709509,-1.467078 3.586469,-2.196868 5.623384,-2.196868 h 2.376816 c 1.329618,0 2.546768,-0.472364 3.661448,-1.387101 l -1.28713,8.792472 c -0.509854,3.471502 0.299914,6.408158 2.454294,8.849956 2.099397,2.466791 4.943579,3.68644 8.375093,3.68644 3.478999,0 6.635592,-1.219649 9.504767,-3.68644 2.839184,-2.441798 4.513703,-5.378454 5.028554,-8.849956 0.509854,-3.4765 -0.304912,-6.410657 -2.416805,-8.849956 -2.15438,-2.411806 -4.97357,-3.643952 -8.472564,-3.643952 h -7.40787 l 0.157454,-0.972221 c 0.202442,-1.42459 -0.119965,-2.684228 -1.009709,-3.72143 -0.862252,-1.034702 -2.041913,-1.542056 -3.481499,-1.542056 z m 3.601464,11.224273 h 7.422866 c 2.079402,0 3.726429,0.709796 4.951077,2.179373 1.189658,1.467078 1.617035,3.264062 1.324619,5.325969 -0.294915,2.059408 -1.272134,3.8264 -2.889169,5.303475 -1.654525,1.49707 -3.506492,2.259351 -5.583395,2.259351 -2.061907,0 -3.703935,-0.762281 -4.931083,-2.259351 C 79.3097,68.038016 78.842334,66.271024 79.13475,64.211616 l 1.092186,-7.505342 z"
     id="path46_1_"
     style="fill:#82c223"
     inkscape:connector-curvature="0" /><path
     d="m 113.24994,51.717708 c -3.43151,0 -6.6106,1.222149 -9.42479,3.661447 -2.86917,2.479288 -4.553689,5.415943 -5.068541,8.889945 l -1.821976,12.478912 c 1.467078,0 2.7842,-0.492358 3.941367,-1.524562 1.18716,-1.027204 1.86197,-2.256851 2.0819,-3.726428 l 1.0472,-7.227922 c 0.30491,-2.076903 1.30463,-3.858891 2.94915,-5.363458 1.65703,-1.472077 3.504,-2.199368 5.5684,-2.199368 2.0744,0 3.72393,0.727291 4.94608,2.199368 1.18466,1.507066 1.63453,3.289054 1.32712,5.363458 l -1.0472,7.227922 c -0.21744,1.442085 0.15496,2.649238 1.0472,3.683941 0.87225,1.037201 2.02192,1.567049 3.464,1.567049 L 124.08433,64.2691 c 0.30741,-2.076903 1.26963,-3.858891 2.92916,-5.363458 1.65202,-1.472077 3.51399,-2.199368 5.58089,-2.199368 2.05691,0 3.68394,0.727291 4.91109,2.199368 1.18466,1.507066 1.67452,3.289054 1.36461,5.363458 l -1.0672,7.227922 c -0.21993,1.442085 0.13996,2.649238 1.02721,3.683941 0.88474,1.037201 2.02442,1.567049 3.4665,1.567049 l 0.85226,-5.84332 c 0.38988,0.767279 0.88474,1.49707 1.48707,2.179373 2.13938,2.439299 4.93358,3.663947 8.37759,3.663947 h 7.38038 c 0.19994,-1.377104 -0.0925,-2.556765 -0.92973,-3.531485 -0.81977,-0.962223 -1.93195,-1.444584 -3.30655,-1.444584 h -2.41681 c -2.06191,0 -3.70393,-0.747286 -4.93108,-2.216863 -1.25214,-1.469578 -1.71951,-3.226572 -1.42709,-5.28848 0.31741,-2.076903 1.28963,-3.85889 2.96915,-5.363458 1.65702,-1.472077 3.52398,-2.199367 5.58589,-2.199367 h 2.39681 c 1.36961,0 2.65174,-0.512353 3.76142,-1.484574 1.11718,-0.967222 1.737,-2.111893 1.93694,-3.503992 h -7.38787 c -3.43152,0 -6.58561,1.222148 -9.43729,3.661447 -1.3921,1.219649 -2.49428,2.551766 -3.32404,4.00135 -0.40239,-1.459581 -1.12468,-2.801695 -2.15938,-4.00135 -2.13189,-2.439299 -4.91609,-3.661447 -8.41508,-3.661447 -1.93695,0 -3.8314,0.447371 -5.74085,1.324619 -1.88196,0.877248 -3.55898,2.046911 -4.96857,3.583969 -0.99972,-1.537058 -2.33183,-2.749209 -3.96137,-3.623958 -1.61703,-0.842258 -3.40902,-1.282131 -5.38845,-1.282131 z"
     id="path48_1_"
     style="fill:#bdd1e3"
     inkscape:connector-curvature="0" /><path
     d="M 99.97126,0.025618 C 25.905053,0.025618 0,25.930671 0,99.996878 c 0,74.061212 25.905053,99.971262 99.97126,99.971262 74.07121,0 99.97126,-25.91005 99.97126,-99.971262 0,-74.066207 -25.90005,-99.97126 -99.97126,-99.97126 z m 0,197.500722 c -72.876549,0 -97.471978,-24.61292 -97.471978,-97.531961 0,-72.916538 24.595429,-97.526963 97.471978,-97.526963 72.87405,0 97.47198,24.610425 97.47198,97.526963 0,72.919041 -24.59793,97.531961 -97.47198,97.531961 z"
     id="HIGHLIGHT_RIM_1_"
     style="fill:url(#linearGradient3176);fill-opacity:0.25"
     inkscape:connector-curvature="0" /><path
     d="m 3.693938,140.66269 c 9.412294,43.16009 37.854118,59.30545 96.277322,59.30545 58.4282,0 86.86503,-16.14536 96.27732,-59.30545 H 3.693938 z"
     id="path3187"
     style="opacity:0.02000002"
     inkscape:connector-curvature="0" /><path
     d="m 5.603389,148.16053 c 11.039327,37.54171 39.461156,51.80761 94.367871,51.80761 54.91171,0 83.33104,-14.2659 94.36787,-51.80761 H 5.603389 z"
     id="path3189"
     style="opacity:0.02000002"
     inkscape:connector-curvature="0" /><path
     d="m 8.142659,155.65838 c 12.561389,31.96831 40.730791,44.30976 91.828601,44.30976 51.10031,0 79.26971,-12.34145 91.8286,-44.30976 H 8.142659 z"
     id="path3191"
     style="opacity:0.02000002"
     inkscape:connector-curvature="0" /><path
     d="m 11.586669,163.15622 c 13.933494,26.40491 41.500569,36.81192 88.384591,36.81192 46.88652,0 74.4536,-10.40451 88.38709,-36.81192 H 11.586669 z"
     id="path3193"
     style="opacity:0.02000002"
     inkscape:connector-curvature="0" /><path
     d="m 14.488335,168.15479 c 14.715769,22.73846 41.67052,31.81335 85.482925,31.81335 43.8149,0 70.76965,-9.07489 85.48293,-31.81335 H 14.488335 z"
     id="path3195"
     style="opacity:0.02000002"
     inkscape:connector-curvature="0" /><path
     d="m 18.132287,173.15335 c 15.348088,19.06452 41.403098,26.81479 81.838973,26.81479 40.43837,0 66.49089,-7.75027 81.83897,-26.81479 H 18.132287 z"
     id="path3197"
     style="opacity:0.02000002"
     inkscape:connector-curvature="0" /><path
     d="m 22.640991,178.15191 c 15.75797,15.43807 40.623322,21.81623 77.330269,21.81623 36.70945,0 61.5773,-6.37816 77.33277,-21.81623 H 22.640991 z"
     id="path3199"
     style="fill-opacity:0.02000002"
     inkscape:connector-curvature="0" /><path
     d="M 99.97126,2.5249 C 25.905053,2.5249 0,28.429952 0,102.49616 c 0,7.21792 0.254927,13.96598 0.767279,20.29167 l 0.547343,0.05 H 198.65289 l 0.52485,-0.0475 c 0.51235,-6.32569 0.76728,-13.07125 0.76728,-20.29417 C 199.94302,28.429953 174.04247,2.524901 99.97126,2.524901 z"
     id="path3201"
     style="opacity:0.01000001;fill:#ffffff"
     inkscape:connector-curvature="0" /><path
     d="M 99.97126,0.025618 C 25.905053,0.025618 0,25.930671 0,99.996878 c 0,2.626742 0.04249,5.181012 0.107469,7.690292 l 1.751996,0.15495 H 198.09305 l 1.742,-0.15745 c 0.065,-2.50928 0.10747,-5.06355 0.10747,-7.690291 0,-74.063708 -25.90005,-99.968761 -99.97126,-99.968761 z"
     id="path3203"
     style="opacity:0.01000001;fill:#ffffff"
     inkscape:connector-curvature="0" /><path
     d="M 2.411807,95.340717 H 197.53571 l 2.35183,-0.20994 C 198.74536,24.813492 172.38794,0.025618 99.97126,0.025618 c -72.411683,0 -98.774104,24.790373 -99.916276,95.107658 l 2.356823,0.207441 z"
     id="path3205"
     style="opacity:0.01000001;fill:#ffffff"
     inkscape:connector-curvature="0" /><path
     d="M 2.964148,82.844309 H 196.97837 l 2.40181,-0.214938 C 195.31135,21.854343 167.91923,0.025618 99.97126,0.025618 c -67.942968,0 -95.340091,21.831224 -99.408922,82.608751 l 2.40181,0.20994 z"
     id="path3207"
     style="opacity:0.01000001;fill:#ffffff"
     inkscape:connector-curvature="0" /><path
     d="M 2.964148,72.847183 H 196.97837 c 0.50236,0 0.99222,-0.08997 1.48458,-0.164953 C 192.07978,19.455032 164.07283,0.025618 99.97126,0.025618 c -64.096573,0 -92.10852,19.429414 -98.491685,72.659112 0.492358,0.07248 0.979718,0.162453 1.484573,0.162453 z"
     id="path3209"
     style="opacity:0.01000001;fill:#ffffff"
     inkscape:connector-curvature="0" /><path
     d="m 99.97126,0.025618 c -59.992753,0 -88.382092,17.007611 -97.007112,62.826938 H 196.97837 C 188.35335,17.030729 159.96901,0.025618 99.97126,0.025618 z"
     id="path3211"
     style="opacity:0.01000001;fill:#ffffff"
     inkscape:connector-curvature="0" /><path
     d="m 190.13034,54.237533 3.99885,-0.93973 c 0.20744,-0.04999 0.39489,-0.144958 0.59733,-0.20994 C 183.95961,14.586432 155.50529,0.025618 99.97126,0.025618 c -55.529036,0 -83.985856,14.563313 -94.75526,53.062245 0.202442,0.06498 0.389888,0.159954 0.597329,0.20994 l 3.996351,0.93973 c 0.564838,0.132462 1.139672,0.199942 1.719506,0.199942 H 188.41084 c 0.57983,0 1.15716,-0.06748 1.7195,-0.199942 z"
     id="path3213"
     style="opacity:0.01000001;fill:#ffffff"
     inkscape:connector-curvature="0" /><path
     d="M 11.529186,46.939631 H 188.41084 l 3.99885,-0.93973 C 180.1757,12.806944 151.94132,0.025618 99.97126,0.025618 c -51.965061,0 -80.201943,12.783825 -92.438426,45.974283 l 3.996352,0.93973 z"
     id="path3215"
     style="opacity:0.01000001;fill:#ffffff"
     inkscape:connector-curvature="0" /><path
     d="M 11.529186,41.941068 H 188.41084 c 0.76228,0 1.48707,-0.202442 2.14938,-0.519851 C 177.44649,11.627283 149.48203,0.025618 99.97126,0.025618 c -49.505768,0 -77.472728,11.604164 -90.591457,41.395599 0.664809,0.317409 1.389601,0.519851 2.149383,0.519851 z"
     id="path3217"
     style="opacity:0.01000001;fill:#ffffff"
     inkscape:connector-curvature="0" /><path
     d="M 188.41333,36.942505 C 174.49983,10.457619 146.92276,0.025618 99.97126,0.025618 c -46.949003,0 -74.526075,10.432001 -88.442074,36.916887 H 188.41333 z"
     id="path3219"
     style="opacity:0.01000001;fill:#ffffff"
     inkscape:connector-curvature="0" /></g><g
   id="layer2"
   style="display:inline"
   transform="translate(111.9885,113.53155)" /></svg>